<?xml version="1.0" encoding="UTF-8" standalone="no"?>
<!-- Created with Inkscape (http://www.inkscape.org/) -->

<svg
   xmlns:dc="http://purl.org/dc/elements/1.1/"
   xmlns:cc="http://creativecommons.org/ns#"
   xmlns:rdf="http://www.w3.org/1999/02/22-rdf-syntax-ns#"
   xmlns:svg="http://www.w3.org/2000/svg"
   xmlns="http://www.w3.org/2000/svg"
   xmlns:sodipodi="http://sodipodi.sourceforge.net/DTD/sodipodi-0.dtd"
   xmlns:inkscape="http://www.inkscape.org/namespaces/inkscape"
   width="210mm"
   height="297mm"
   viewBox="0 0 210 297"
   version="1.1"
   id="svg5737"
   inkscape:version="0.92.2 (5c3e80d, 2017-08-06)"
   sodipodi:docname="logo.svg">
  <defs
     id="defs5731">
    <filter
       inkscape:collect="always"
       style="color-interpolation-filters:sRGB"
       id="filter6680"
       x="-0.0063042031"
       width="1.0126084"
       y="-0.0057238035"
       height="1.0114476">
      <feGaussianBlur
         inkscape:collect="always"
         stdDeviation="0.14457654"
         id="feGaussianBlur6682" />
    </filter>
  </defs>
  <sodipodi:namedview
     id="base"
     pagecolor="#ffffff"
     bordercolor="#666666"
     borderopacity="1.0"
     inkscape:pageopacity="0.0"
     inkscape:pageshadow="2"
     inkscape:zoom="1.4"
     inkscape:cx="426.9681"
     inkscape:cy="844.28792"
     inkscape:document-units="mm"
     inkscape:current-layer="layer8"
     showgrid="false"
     inkscape:window-width="1920"
     inkscape:window-height="1001"
     inkscape:window-x="-9"
     inkscape:window-y="-9"
     inkscape:window-maximized="1"
     objecttolerance="40"
     inkscape:object-paths="false"
     inkscape:object-nodes="true"
     inkscape:snap-grids="false"
     inkscape:snap-to-guides="false"
     inkscape:snap-others="false"
     inkscape:snap-nodes="true"
     inkscape:snap-bbox="false"
     inkscape:snap-global="false" />
  <metadata
     id="metadata5734">
    <rdf:RDF>
      <cc:Work
         rdf:about="">
        <dc:format>image/svg+xml</dc:format>
        <dc:type
           rdf:resource="http://purl.org/dc/dcmitype/StillImage" />
        <dc:title></dc:title>
      </cc:Work>
    </rdf:RDF>
  </metadata>
  <g
     inkscape:label="nodes"
     inkscape:groupmode="layer"
     id="layer1"
     style="display:inline">
    <path
       style="opacity:1;fill:none;fill-opacity:1;stroke:#545b65;stroke-width:0.06967901;stroke-miterlimit:4;stroke-dasharray:none;stroke-opacity:1"
       d="m 109.82825,99.396362 a 0.68763059,0.59313685 0 0 1 -0.68763,0.593137 0.68763059,0.59313685 0 0 1 -0.68763,-0.593137 0.68763059,0.59313685 0 0 1 0.68763,-0.593137 0.68763059,0.59313685 0 0 1 0.68763,0.593137 z"
       id="path6346" />
    <path
       style="opacity:0.428;fill:#545b65;fill-opacity:1;stroke:#545b65;stroke-width:0.5;stroke-miterlimit:4;stroke-dasharray:none;stroke-opacity:1"
       d="m 107.71174,25.691544 a 2.0788691,2.0788691 0 0 1 -2.07887,2.078869 2.0788691,2.0788691 0 0 1 -2.07887,-2.078869 2.0788691,2.0788691 0 0 1 2.07887,-2.07887 2.0788691,2.0788691 0 0 1 2.07887,2.07887 z"
       id="path6348" />
    <path
       style="opacity:0.428;fill:#545b65;fill-opacity:1;stroke:#545b65;stroke-width:0.5;stroke-miterlimit:4;stroke-dasharray:none;stroke-opacity:1"
       d="m 118.59725,25.911566 a 2.0788691,2.0788691 0 0 1 -2.07887,2.078869 2.0788691,2.0788691 0 0 1 -2.07887,-2.078869 2.0788691,2.0788691 0 0 1 2.07887,-2.078869 2.0788691,2.0788691 0 0 1 2.07887,2.078869 z"
       id="circle6350" />
    <path
       style="opacity:1;fill:#ff0000;fill-opacity:1;stroke:#000000;stroke-width:0.5;stroke-miterlimit:4;stroke-dasharray:none;stroke-opacity:1"
       d="m 129.08609,28.36841 a 2.0788691,2.0788691 0 0 1 -2.07887,2.078869 2.0788691,2.0788691 0 0 1 -2.07887,-2.078869 2.0788691,2.0788691 0 0 1 2.07887,-2.078869 2.0788691,2.0788691 0 0 1 2.07887,2.078869 z"
       id="circle6352" />
    <path
       style="opacity:0.428;fill:#545b65;fill-opacity:1;stroke:#545b65;stroke-width:0.5;stroke-miterlimit:4;stroke-dasharray:none;stroke-opacity:1"
       d="m 139.0552,32.856876 a 2.0788691,2.0788691 0 0 1 -2.07887,2.078869 2.0788691,2.0788691 0 0 1 -2.07887,-2.078869 2.0788691,2.0788691 0 0 1 2.07887,-2.078869 2.0788691,2.0788691 0 0 1 2.07887,2.078869 z"
       id="circle6354" />
    <path
       style="opacity:0.428;fill:#545b65;fill-opacity:1;stroke:#545b65;stroke-width:0.5;stroke-miterlimit:4;stroke-dasharray:none;stroke-opacity:1"
       d="m 147.93765,39.282471 a 2.0788691,2.0788691 0 0 1 -2.07887,2.078869 2.0788691,2.0788691 0 0 1 -2.07887,-2.078869 2.0788691,2.0788691 0 0 1 2.07887,-2.078869 2.0788691,2.0788691 0 0 1 2.07887,2.078869 z"
       id="circle6356" />
    <path
       style="opacity:0.428;fill:#545b65;fill-opacity:1;stroke:#545b65;stroke-width:0.5;stroke-miterlimit:4;stroke-dasharray:none;stroke-opacity:1"
       d="m 155.59167,47.456207 a 2.0788691,2.0788691 0 0 1 -2.07887,2.078869 2.0788691,2.0788691 0 0 1 -2.07887,-2.078869 2.0788691,2.0788691 0 0 1 2.07887,-2.078869 2.0788691,2.0788691 0 0 1 2.07887,2.078869 z"
       id="circle6358" />
    <path
       style="opacity:1;fill:#0000c9;fill-opacity:1;stroke:#000000;stroke-width:0.5;stroke-miterlimit:4;stroke-dasharray:none;stroke-opacity:1"
       d="m 161.92277,56.76387 a 2.0788691,2.0788691 0 0 1 -2.07887,2.078869 2.0788691,2.0788691 0 0 1 -2.07887,-2.078869 2.0788691,2.0788691 0 0 1 2.07887,-2.078869 2.0788691,2.0788691 0 0 1 2.07887,2.078869 z"
       id="circle6360" />
    <path
       style="opacity:0.428;fill:#545b65;fill-opacity:1;stroke:#545b65;stroke-width:0.5;stroke-miterlimit:4;stroke-dasharray:none;stroke-opacity:1"
       d="m 166.55297,67.347206 a 2.0788691,2.0788691 0 0 1 -2.07886,2.078869 2.0788691,2.0788691 0 0 1 -2.07887,-2.078869 2.0788691,2.0788691 0 0 1 2.07887,-2.078869 2.0788691,2.0788691 0 0 1 2.07886,2.078869 z"
       id="circle6362" />
    <path
       style="opacity:1;fill:#545b65;fill-opacity:0.42745098;stroke:none;stroke-width:0.5;stroke-miterlimit:4;stroke-dasharray:none;stroke-opacity:0.42745098"
       d="m 169.2933,78.544754 a 2.0788691,2.0788691 0 0 1 -2.07887,2.078869 2.0788691,2.0788691 0 0 1 -2.07887,-2.078869 2.0788691,2.0788691 0 0 1 2.07887,-2.078869 2.0788691,2.0788691 0 0 1 2.07887,2.078869 z"
       id="circle6364" />
    <path
       style="opacity:0.428;fill:#545b65;fill-opacity:1;stroke:#545b65;stroke-width:0.5;stroke-miterlimit:4;stroke-dasharray:none;stroke-opacity:1"
       d="m 169.71852,90.02578 a 2.0788691,2.0788691 0 0 1 -2.07887,2.078869 2.0788691,2.0788691 0 0 1 -2.07887,-2.078869 2.0788691,2.0788691 0 0 1 2.07887,-2.078869 2.0788691,2.0788691 0 0 1 2.07887,2.078869 z"
       id="circle6366" />
    <path
       style="opacity:0.428;fill:#545b65;fill-opacity:1;stroke:#545b65;stroke-width:0.5;stroke-miterlimit:4;stroke-dasharray:none;stroke-opacity:1"
       d="m 168.58459,101.6013 a 2.0788691,2.0788691 0 0 1 -2.07887,2.07887 2.0788691,2.0788691 0 0 1 -2.07887,-2.07887 2.0788691,2.0788691 0 0 1 2.07887,-2.078866 2.0788691,2.0788691 0 0 1 2.07887,2.078866 z"
       id="circle6368" />
    <path
       style="opacity:0.428;fill:#545b65;fill-opacity:1;stroke:#545b65;stroke-width:0.5;stroke-miterlimit:4;stroke-dasharray:none;stroke-opacity:1"
       d="m 165.18281,112.56261 a 2.0788691,2.0788691 0 0 1 -2.07887,2.07887 2.0788691,2.0788691 0 0 1 -2.07887,-2.07887 2.0788691,2.0788691 0 0 1 2.07887,-2.07887 2.0788691,2.0788691 0 0 1 2.07887,2.07887 z"
       id="circle6370" />
    <path
       style="opacity:1;fill:#ff0000;fill-opacity:1;stroke:#000000;stroke-width:0.5;stroke-miterlimit:4;stroke-dasharray:none;stroke-opacity:1"
       d="m 160.26912,122.86246 a 2.0788691,2.0788691 0 0 1 -2.07887,2.07887 2.0788691,2.0788691 0 0 1 -2.07887,-2.07887 2.0788691,2.0788691 0 0 1 2.07887,-2.07887 2.0788691,2.0788691 0 0 1 2.07887,2.07887 z"
       id="circle6372" />
    <path
       style="opacity:0.428;fill:#545b65;fill-opacity:1;stroke:#545b65;stroke-width:0.5;stroke-miterlimit:4;stroke-dasharray:none;stroke-opacity:1"
       d="m 153.18206,131.65041 a 2.0788691,2.0788691 0 0 1 -2.07886,2.07886 2.0788691,2.0788691 0 0 1 -2.07887,-2.07886 2.0788691,2.0788691 0 0 1 2.07887,-2.07887 2.0788691,2.0788691 0 0 1 2.07886,2.07887 z"
       id="circle6374" />
    <path
       style="opacity:0.428;fill:#545b65;fill-opacity:1;stroke:#545b65;stroke-width:0.5;stroke-miterlimit:4;stroke-dasharray:none;stroke-opacity:1"
       d="m 145.10283,139.30443 a 2.0788691,2.0788691 0 0 1 -2.07887,2.07887 2.0788691,2.0788691 0 0 1 -2.07887,-2.07887 2.0788691,2.0788691 0 0 1 2.07887,-2.07887 2.0788691,2.0788691 0 0 1 2.07887,2.07887 z"
       id="circle6376" />
    <path
       style="opacity:0.428;fill:#545b65;fill-opacity:1;stroke:#545b65;stroke-width:0.5;stroke-miterlimit:4;stroke-dasharray:none;stroke-opacity:1"
       d="m 135.70066,145.25755 a 2.0788691,2.0788691 0 0 1 -2.07886,2.07887 2.0788691,2.0788691 0 0 1 -2.07887,-2.07887 2.0788691,2.0788691 0 0 1 2.07887,-2.07887 2.0788691,2.0788691 0 0 1 2.07886,2.07887 z"
       id="circle6378" />
    <path
       style="opacity:0.428;fill:#545b65;fill-opacity:1;stroke:#545b65;stroke-width:0.5;stroke-miterlimit:4;stroke-dasharray:none;stroke-opacity:1"
       d="m 125.5898,148.89557 a 2.0788691,2.0788691 0 0 1 -2.07887,2.07887 2.0788691,2.0788691 0 0 1 -2.07887,-2.07887 2.0788691,2.0788691 0 0 1 2.07887,-2.07887 2.0788691,2.0788691 0 0 1 2.07887,2.07887 z"
       id="circle6380" />
    <path
       style="opacity:1;fill:#0000c9;fill-opacity:1;stroke:#000000;stroke-width:0.5;stroke-miterlimit:4;stroke-dasharray:none;stroke-opacity:1"
       d="m 114.91198,150.8327 a 2.0788691,2.0788691 0 0 1 -2.07887,2.07887 2.0788691,2.0788691 0 0 1 -2.07887,-2.07887 2.0788691,2.0788691 0 0 1 2.07887,-2.07887 2.0788691,2.0788691 0 0 1 2.07887,2.07887 z"
       id="circle6382" />
    <path
       style="opacity:1;fill:#0000c9;fill-opacity:0.99995949;stroke:#000000;stroke-width:0.5;stroke-miterlimit:4;stroke-dasharray:none;stroke-opacity:1"
       d="m 103.95067,150.78546 a 2.0788691,2.0788691 0 0 1 -2.07887,2.07887 2.0788691,2.0788691 0 0 1 -2.078866,-2.07887 2.0788691,2.0788691 0 0 1 2.078866,-2.07887 2.0788691,2.0788691 0 0 1 2.07887,2.07887 z"
       id="circle6384" />
    <path
       style="opacity:1;fill:#0000cd;fill-opacity:1;stroke:#000000;stroke-width:0.5;stroke-miterlimit:4;stroke-dasharray:none;stroke-opacity:0.98512944"
       d="m 93.414585,147.95064 a 2.0788691,2.0788691 0 0 1 -2.078869,2.07887 2.0788691,2.0788691 0 0 1 -2.078869,-2.07887 2.0788691,2.0788691 0 0 1 2.078869,-2.07887 2.0788691,2.0788691 0 0 1 2.078869,2.07887 z"
       id="circle6386" />
    <path
       style="opacity:1;fill:#0000c9;fill-opacity:1;stroke:#000000;stroke-width:0.5;stroke-miterlimit:4;stroke-dasharray:none;stroke-opacity:1"
       d="m 83.634449,143.03694 a 2.0788691,2.0788691 0 0 1 -2.078869,2.07887 2.0788691,2.0788691 0 0 1 -2.078869,-2.07887 2.0788691,2.0788691 0 0 1 2.078869,-2.07887 2.0788691,2.0788691 0 0 1 2.078869,2.07887 z"
       id="circle6388" />
    <path
       style="opacity:1;fill:#0000c9;fill-opacity:1;stroke:#000000;stroke-width:0.5;stroke-miterlimit:4;stroke-dasharray:none;stroke-opacity:1"
       d="m 74.563023,136.75308 a 2.0788691,2.0788691 0 0 1 -2.078869,2.07887 2.0788691,2.0788691 0 0 1 -2.078869,-2.07887 2.0788691,2.0788691 0 0 1 2.078869,-2.07887 2.0788691,2.0788691 0 0 1 2.078869,2.07887 z"
       id="circle6390" />
    <path
       style="opacity:1;fill:#0102bf;fill-opacity:1;stroke:#000000;stroke-width:0.5;stroke-miterlimit:4;stroke-dasharray:none;stroke-opacity:1"
       d="m 66.956249,128.91008 a 2.0788691,2.0788691 0 0 1 -2.078869,2.07887 2.0788691,2.0788691 0 0 1 -2.078869,-2.07887 2.0788691,2.0788691 0 0 1 2.078869,-2.07887 2.0788691,2.0788691 0 0 1 2.078869,2.07887 z"
       id="circle6392" />
    <path
       style="opacity:1;fill:#9932cc;fill-opacity:1;stroke:#000000;stroke-width:0.5;stroke-miterlimit:4;stroke-dasharray:none;stroke-opacity:1"
       d="m 60.530655,119.36619 a 2.0788691,2.0788691 0 0 1 -2.078869,2.07887 2.0788691,2.0788691 0 0 1 -2.078869,-2.07887 2.0788691,2.0788691 0 0 1 2.078869,-2.07887 2.0788691,2.0788691 0 0 1 2.078869,2.07887 z"
       id="circle6394" />
    <path
       style="opacity:0.428;fill:#545b65;fill-opacity:1;stroke:#545b65;stroke-width:0.5;stroke-miterlimit:4;stroke-dasharray:none;stroke-opacity:1"
       d="m 55.900448,109.06634 a 2.0788691,2.0788691 0 0 1 -2.078869,2.07887 2.0788691,2.0788691 0 0 1 -2.078869,-2.07887 2.0788691,2.0788691 0 0 1 2.078869,-2.07887 2.0788691,2.0788691 0 0 1 2.078869,2.07887 z"
       id="circle6396" />
    <path
       style="opacity:0.428;fill:#545b65;fill-opacity:1;stroke:#545b65;stroke-width:0.5;stroke-miterlimit:4;stroke-dasharray:none;stroke-opacity:1"
       d="m 53.301861,97.821548 a 2.0788691,2.0788691 0 0 1 -2.078869,2.07887 2.0788691,2.0788691 0 0 1 -2.078869,-2.07887 2.0788691,2.0788691 0 0 1 2.078869,-2.078869 2.0788691,2.0788691 0 0 1 2.078869,2.078869 z"
       id="circle6398" />
    <path
       style="opacity:0.428;fill:#545b65;fill-opacity:1;stroke:#545b65;stroke-width:0.5;stroke-miterlimit:4;stroke-dasharray:none;stroke-opacity:1"
       d="m 52.782143,86.104286 a 2.0788691,2.0788691 0 0 1 -2.078869,2.078869 2.0788691,2.0788691 0 0 1 -2.078869,-2.078869 2.0788691,2.0788691 0 0 1 2.078869,-2.078869 2.0788691,2.0788691 0 0 1 2.078869,2.078869 z"
       id="circle6400" />
    <path
       style="opacity:1;fill:#545b65;fill-opacity:0.42745098;stroke:none;stroke-width:0.5;stroke-miterlimit:4;stroke-dasharray:none;stroke-opacity:1"
       d="m 54.2468,74.717751 a 2.0788691,2.0788691 0 0 1 -2.078869,2.078869 2.0788691,2.0788691 0 0 1 -2.07887,-2.078869 2.0788691,2.0788691 0 0 1 2.07887,-2.07887 2.0788691,2.0788691 0 0 1 2.078869,2.07887 z"
       id="circle6402" />
    <path
       style="opacity:0.428;fill:#545b65;fill-opacity:1;stroke:#545b65;stroke-width:0.5;stroke-miterlimit:4;stroke-dasharray:none;stroke-opacity:1"
       d="m 57.365105,63.756439 a 2.0788691,2.0788691 0 0 1 -2.078869,2.078869 2.0788691,2.0788691 0 0 1 -2.078869,-2.078869 2.0788691,2.0788691 0 0 1 2.078869,-2.078869 2.0788691,2.0788691 0 0 1 2.078869,2.078869 z"
       id="circle6404" />
    <path
       style="opacity:1;fill:#0000c8;fill-opacity:1;stroke:#000000;stroke-width:0.5;stroke-miterlimit:4;stroke-dasharray:none;stroke-opacity:1"
       d="m 62.231549,53.078613 a 2.0788691,2.0788691 0 0 1 -2.07887,2.078869 2.0788691,2.0788691 0 0 1 -2.078869,-2.078869 2.0788691,2.0788691 0 0 1 2.078869,-2.078869 2.0788691,2.0788691 0 0 1 2.07887,2.078869 z"
       id="circle6406" />
    <path
       style="opacity:0.428;fill:#545b65;fill-opacity:1;stroke:#545b65;stroke-width:0.5;stroke-miterlimit:4;stroke-dasharray:none;stroke-opacity:1"
       d="m 68.987873,44.196175 a 2.0788691,2.0788691 0 0 1 -2.078869,2.078869 2.0788691,2.0788691 0 0 1 -2.078869,-2.078869 2.0788691,2.0788691 0 0 1 2.078869,-2.078869 2.0788691,2.0788691 0 0 1 2.078869,2.078869 z"
       id="circle6408" />
    <path
       style="opacity:0.428;fill:#545b65;fill-opacity:1;stroke:#545b65;stroke-width:0.5;stroke-miterlimit:4;stroke-dasharray:none;stroke-opacity:1"
       d="m 77.2561,36.400417 a 2.0788691,2.0788691 0 0 1 -2.078869,2.078869 2.0788691,2.0788691 0 0 1 -2.078869,-2.078869 2.0788691,2.0788691 0 0 1 2.078869,-2.078869 2.0788691,2.0788691 0 0 1 2.078869,2.078869 z"
       id="circle6410" />
    <path
       style="opacity:0.428;fill:#545b65;fill-opacity:1;stroke:#545b65;stroke-width:0.5;stroke-miterlimit:4;stroke-dasharray:none;stroke-opacity:1"
       d="m 86.799999,30.683527 a 2.0788691,2.0788691 0 0 1 -2.078869,2.078869 2.0788691,2.0788691 0 0 1 -2.078869,-2.078869 2.0788691,2.0788691 0 0 1 2.078869,-2.078869 2.0788691,2.0788691 0 0 1 2.078869,2.078869 z"
       id="circle6412" />
    <path
       style="opacity:1;fill:#ff0000;fill-opacity:1;stroke:#000000;stroke-width:0.5;stroke-miterlimit:4;stroke-dasharray:none;stroke-opacity:1"
       d="M 96.688969,26.808119 A 2.0788691,2.0788691 0 0 1 94.6101,28.886988 2.0788691,2.0788691 0 0 1 92.531231,26.808119 2.0788691,2.0788691 0 0 1 94.6101,24.72925 a 2.0788691,2.0788691 0 0 1 2.078869,2.078869 z"
       id="circle6416" />
    <g
       id="g6556"
       style="fill:#92999e;fill-opacity:0.94149816"
       transform="translate(0.33671065,-0.11001019)">
      <g
         aria-label="1"
         style="font-style:normal;font-weight:normal;font-size:4.23333311px;line-height:1.25;font-family:sans-serif;letter-spacing:0px;word-spacing:0px;fill:#92999e;fill-opacity:0.94149816;stroke:none;stroke-width:0.26458332"
         id="text6420">
        <path
           d="m 116.87586,27.308319 h -1.38838 v -0.261827 h 0.53399 v -1.719103 h -0.53399 v -0.234266 q 0.10852,0 0.23255,-0.01723 0.12402,-0.01895 0.18775,-0.0534 0.0792,-0.04306 0.12403,-0.10852 0.0465,-0.06718 0.0534,-0.179145 h 0.26699 v 2.311659 h 0.52366 z"
           style="font-size:3.52777767px;fill:#92999e;fill-opacity:0.94149816;stroke-width:0.26458332"
           id="path7650" />
      </g>
    </g>
    <text
       xml:space="preserve"
       style="font-style:normal;font-weight:normal;font-size:4.23333311px;line-height:1.25;font-family:sans-serif;letter-spacing:0px;word-spacing:0px;fill:#959ca1;fill-opacity:1;stroke:none;stroke-width:0.26458332"
       x="125.86172"
       y="29.677546"
       id="text6424"><tspan
         sodipodi:role="line"
         id="tspan6422"
         x="125.86172"
         y="33.539745"
         style="font-size:3.52777767px;fill:#959ca1;fill-opacity:1;stroke-width:0.26458332" /></text>
    <g
       aria-label="3"
       style="font-style:normal;font-weight:normal;font-size:4.23333311px;line-height:1.25;font-family:sans-serif;letter-spacing:0px;word-spacing:0px;fill:#8e959b;fill-opacity:0.87635295;stroke:none;stroke-width:0.26458332"
       id="text6428">
      <path
         d="m 137.63177,32.904246 q 0.0827,0.07407 0.13608,0.186035 0.0534,0.111966 0.0534,0.289388 0,0.1757 -0.0637,0.322117 -0.0637,0.146416 -0.17915,0.254937 -0.12919,0.120578 -0.30489,0.179145 -0.17398,0.05684 -0.38241,0.05684 -0.21359,0 -0.4203,-0.05168 -0.2067,-0.04995 -0.33934,-0.110243 V 33.67078 h 0.0258 q 0.14642,0.09646 0.34451,0.160197 0.19809,0.06373 0.3824,0.06373 0.10852,0 0.23083,-0.03617 0.1223,-0.03617 0.19809,-0.106797 0.0792,-0.07579 0.11713,-0.167088 0.0396,-0.09129 0.0396,-0.230821 0,-0.137804 -0.0448,-0.227376 -0.0431,-0.0913 -0.12057,-0.142972 -0.0775,-0.0534 -0.18776,-0.07235 -0.11025,-0.02067 -0.23771,-0.02067 h -0.15503 v -0.285943 h 0.12058 q 0.26182,0 0.41685,-0.108521 0.15675,-0.110243 0.15675,-0.320394 0,-0.09302 -0.0396,-0.161919 -0.0396,-0.07062 -0.11025,-0.115411 -0.0741,-0.04479 -0.15847,-0.06201 -0.0844,-0.01722 -0.1912,-0.01722 -0.16365,0 -0.34796,0.05857 -0.18431,0.05857 -0.34795,0.165364 h -0.0172 V 31.68296 q 0.1223,-0.06029 0.32556,-0.110243 0.20498,-0.05168 0.39619,-0.05168 0.18776,0 0.33073,0.03445 0.14297,0.03445 0.25838,0.110243 0.12402,0.08268 0.18776,0.199816 0.0637,0.117133 0.0637,0.273885 0,0.213596 -0.15158,0.373793 -0.14986,0.158474 -0.35485,0.199815 v 0.02412 q 0.0827,0.01378 0.18948,0.05857 0.1068,0.04306 0.18087,0.10852 z"
         style="font-size:3.52777767px;fill:#8e959b;fill-opacity:0.87635295;stroke-width:0.26458332"
         id="path7647" />
    </g>
    <g
       aria-label="4"
       style="font-style:normal;font-weight:normal;font-size:4.23333311px;line-height:1.25;font-family:sans-serif;letter-spacing:0px;word-spacing:0px;fill:#92999e;fill-opacity:0.94117647;stroke:none;stroke-width:0.26458332"
       id="text6432">
      <path
         d="m 146.82857,39.84316 h -0.38068 v 0.721747 h -0.33073 V 39.84316 h -1.22818 v -0.396186 l 1.24196,-1.44694 h 0.31695 v 1.567518 h 0.38068 z m -0.71141,-0.275608 V 38.41 l -0.99391,1.157552 z"
         style="font-size:3.52777767px;fill:#92999e;fill-opacity:0.94117647;stroke-width:0.26458332"
         id="path7644" />
    </g>
    <g
       aria-label="5"
       style="font-style:normal;font-weight:normal;font-size:4.23333311px;line-height:1.25;font-family:sans-serif;letter-spacing:0px;word-spacing:0px;fill:#000000;fill-opacity:1;stroke:none;stroke-width:0.26458332"
       id="text6436">
      <path
         d="m 154.34824,47.89718 q 0,0.179144 -0.0654,0.342787 -0.0655,0.163642 -0.17915,0.275607 -0.12402,0.120578 -0.29628,0.186035 -0.17053,0.06374 -0.39618,0.06374 -0.21015,0 -0.4048,-0.04479 -0.19465,-0.04306 -0.32901,-0.105075 v -0.363458 h 0.0241 q 0.14125,0.08957 0.33073,0.153307 0.18948,0.06201 0.37207,0.06201 0.1223,0 0.23599,-0.03445 0.11541,-0.03445 0.20498,-0.120578 0.0758,-0.07407 0.11369,-0.177423 0.0396,-0.103353 0.0396,-0.239434 0,-0.132636 -0.0465,-0.223931 -0.0448,-0.0913 -0.12575,-0.146417 -0.0896,-0.06546 -0.21876,-0.0913 -0.12747,-0.02756 -0.28595,-0.02756 -0.15158,0 -0.29283,0.02067 -0.13953,0.02067 -0.24116,0.04134 v -1.321194 h 1.54341 v 0.301446 h -1.21095 v 0.682129 q 0.0741,-0.0069 0.15158,-0.01033 0.0775,-0.0034 0.13436,-0.0034 0.20843,0 0.36518,0.03617 0.15675,0.03445 0.28766,0.124023 0.13781,0.09474 0.2136,0.244602 0.0758,0.149862 0.0758,0.375516 z"
         style="font-size:3.52777767px;fill:#7c848b;fill-opacity:0.71372549;stroke-width:0.26458332"
         id="path7641" />
    </g>
    <text
       xml:space="preserve"
       style="font-style:normal;font-weight:normal;font-size:4.23333311px;line-height:1.25;font-family:sans-serif;letter-spacing:0px;word-spacing:0px;fill:#000000;fill-opacity:1;stroke:none;stroke-width:0.26458332"
       x="158.70013"
       y="58.043724"
       id="text6440"><tspan
         sodipodi:role="line"
         id="tspan6438"
         x="158.70013"
         y="61.905922"
         style="font-size:3.52777767px;fill:#7c848b;fill-opacity:0.71372549;stroke-width:0.26458332" /></text>
    <g
       aria-label="7"
       style="font-style:normal;font-weight:normal;font-size:4.23333311px;line-height:1.25;font-family:sans-serif;letter-spacing:0px;word-spacing:0px;fill:#000000;fill-opacity:1;stroke:none;stroke-width:0.26458332"
       id="text6444">
      <path
         d="m 165.35174,66.448901 -1.161,2.180745 h -0.36862 l 1.23506,-2.263427 h -1.46072 v -0.301446 h 1.75528 z"
         style="font-size:3.52777767px;fill:#7c848b;fill-opacity:0.71372549;stroke-width:0.26458332"
         id="path7638" />
    </g>
    <text
       xml:space="preserve"
       style="font-style:normal;font-weight:normal;font-size:4.23333311px;line-height:1.25;font-family:sans-serif;letter-spacing:0px;word-spacing:0px;fill:#000000;fill-opacity:1;stroke:none;stroke-width:0.26458332"
       x="166.09305"
       y="79.827194"
       id="text6448"><tspan
         sodipodi:role="line"
         id="tspan6446"
         x="166.09305"
         y="83.689392"
         style="font-size:3.52777767px;fill:#7c848b;fill-opacity:0.71372549;stroke-width:0.26458332" /></text>
    <g
       aria-label="9"
       style="font-style:normal;font-weight:normal;font-size:4.23333311px;line-height:1.25;font-family:sans-serif;letter-spacing:0px;word-spacing:0px;fill:#000000;fill-opacity:1;stroke:none;stroke-width:0.26458332"
       id="text6452">
      <path
         d="m 168.54743,89.87247 q 0,0.335896 -0.0775,0.609782 -0.0758,0.273885 -0.23082,0.46681 -0.15675,0.19637 -0.39274,0.303168 -0.23599,0.106798 -0.55466,0.106798 -0.0896,0 -0.16881,-0.01033 -0.0792,-0.0086 -0.14125,-0.02928 v -0.329007 h 0.0172 q 0.0499,0.02584 0.14125,0.04995 0.0913,0.02239 0.20326,0.02239 0.38068,0 0.596,-0.227376 0.21704,-0.229099 0.25149,-0.630453 -0.16019,0.09646 -0.30144,0.137804 -0.14125,0.04134 -0.30834,0.04134 -0.15847,0 -0.28767,-0.03101 -0.12746,-0.031 -0.25665,-0.120578 -0.15159,-0.105075 -0.2291,-0.266995 -0.0758,-0.161919 -0.0758,-0.387573 0,-0.392741 0.25839,-0.639065 0.25838,-0.246325 0.63045,-0.246325 0.18603,0 0.34451,0.05857 0.15847,0.05684 0.27733,0.172255 0.14641,0.142971 0.22565,0.368625 0.0792,0.223931 0.0792,0.580499 z m -0.34796,-0.07407 q 0,-0.266995 -0.0551,-0.428914 -0.0551,-0.16192 -0.15158,-0.251492 -0.081,-0.07751 -0.17398,-0.110243 -0.093,-0.03445 -0.20154,-0.03445 -0.24804,0 -0.39274,0.155029 -0.14297,0.155029 -0.14297,0.435805 0,0.163642 0.0465,0.266994 0.0465,0.103353 0.15675,0.180868 0.0775,0.0534 0.17053,0.07235 0.093,0.01722 0.20671,0.01722 0.13436,0 0.27216,-0.03617 0.13781,-0.03617 0.25838,-0.105075 0.002,-0.03617 0.003,-0.07062 0.003,-0.03617 0.003,-0.0913 z"
         style="font-size:3.52777767px;fill:#7c848b;fill-opacity:0.71372549;stroke-width:0.26458332"
         id="path7635" />
    </g>
    <g
       aria-label="10"
       style="font-style:normal;font-weight:normal;font-size:4.23333311px;line-height:1.25;font-family:sans-serif;letter-spacing:0px;word-spacing:0px;fill:#000000;fill-opacity:1;stroke:none;stroke-width:0.26458332"
       id="text6456">
      <path
         d="m 166.05536,102.75472 h -1.24953 v -0.23564 h 0.48059 v -1.54719 h -0.48059 v -0.21084 q 0.0977,0 0.20929,-0.0155 0.11162,-0.0171 0.16898,-0.0481 0.0713,-0.0387 0.11162,-0.0977 0.0419,-0.0605 0.0481,-0.16124 h 0.2403 v 2.0805 h 0.47128 z"
         style="font-size:3.17499995px;fill:#7c848b;fill-opacity:0.71372549;stroke-width:0.26458332"
         id="path7630" />
      <path
         d="m 168.20562,101.59975 q 0,0.62167 -0.19534,0.91313 -0.19378,0.2899 -0.60306,0.2899 -0.41548,0 -0.60771,-0.29455 -0.19069,-0.29456 -0.19069,-0.90538 0,-0.61546 0.19379,-0.90847 0.19378,-0.29455 0.60461,-0.29455 0.41548,0 0.60616,0.2992 0.19224,0.29766 0.19224,0.90072 z m -0.40773,0.70384 q 0.0543,-0.12558 0.0729,-0.29456 0.0202,-0.17053 0.0202,-0.40928 0,-0.23564 -0.0202,-0.40927 -0.0186,-0.17364 -0.0744,-0.29456 -0.0543,-0.11937 -0.14882,-0.17983 -0.093,-0.0605 -0.2403,-0.0605 -0.14573,0 -0.24185,0.0605 -0.0946,0.0605 -0.15037,0.18293 -0.0527,0.11472 -0.0729,0.29921 -0.0186,0.18448 -0.0186,0.40462 0,0.24185 0.0171,0.40463 0.0171,0.16278 0.0729,0.29146 0.0512,0.12092 0.14417,0.18448 0.0946,0.0636 0.2496,0.0636 0.14573,0 0.24185,-0.0605 0.0961,-0.0605 0.14882,-0.18293 z"
         style="font-size:3.17499995px;fill:#7c848b;fill-opacity:0.71372549;stroke-width:0.26458332"
         id="path7632" />
    </g>
    <g
       aria-label="11"
       style="font-style:normal;font-weight:normal;font-size:4.23333311px;line-height:1.25;font-family:sans-serif;letter-spacing:0px;word-spacing:0px;fill:#000000;fill-opacity:1;stroke:none;stroke-width:0.26458332"
       id="text6460">
      <path
         d="m 162.71792,113.72067 h -1.24954 v -0.23564 h 0.48059 v -1.54719 h -0.48059 V 111.727 q 0.0977,0 0.20929,-0.0155 0.11162,-0.017 0.16898,-0.0481 0.0713,-0.0388 0.11162,-0.0977 0.0419,-0.0605 0.0481,-0.16124 h 0.2403 v 2.0805 h 0.47129 z"
         style="font-size:3.17499995px;fill:#7c848b;fill-opacity:0.71372549;stroke-width:0.26458332"
         id="path7625" />
      <path
         d="m 164.7395,113.72067 h -1.24954 v -0.23564 h 0.48059 v -1.54719 h -0.48059 V 111.727 q 0.0977,0 0.20929,-0.0155 0.11162,-0.017 0.16898,-0.0481 0.0713,-0.0388 0.11163,-0.0977 0.0419,-0.0605 0.048,-0.16124 h 0.2403 v 2.0805 h 0.47129 z"
         style="font-size:3.17499995px;fill:#7c848b;fill-opacity:0.71372549;stroke-width:0.26458332"
         id="path7627" />
    </g>
    <text
       xml:space="preserve"
       style="font-style:normal;font-weight:normal;font-size:4.23333311px;line-height:1.25;font-family:sans-serif;letter-spacing:0px;word-spacing:0px;fill:#000000;fill-opacity:1;stroke:none;stroke-width:0.26458332"
       x="156.05782"
       y="124.04068"
       id="text6464"><tspan
         sodipodi:role="line"
         id="tspan6462"
         x="156.05782"
         y="127.90288"
         style="font-size:3.17499995px;fill:#7c848b;fill-opacity:0.71372549;stroke-width:0.26458332" /></text>
    <g
       aria-label="13"
       style="font-style:normal;font-weight:normal;font-size:4.23333311px;line-height:1.25;font-family:sans-serif;letter-spacing:0px;word-spacing:0px;fill:#000000;fill-opacity:1;stroke:none;stroke-width:0.26458332"
       id="text6468">
      <path
         d="m 150.66756,132.8046 h -1.24953 v -0.23565 h 0.48059 v -1.54719 h -0.48059 v -0.21084 q 0.0977,0 0.20929,-0.0155 0.11162,-0.0171 0.16898,-0.0481 0.0713,-0.0388 0.11162,-0.0977 0.0419,-0.0605 0.0481,-0.16123 h 0.24029 v 2.08049 h 0.47129 z"
         style="font-size:3.17499995px;fill:#7c848b;fill-opacity:0.71372549;stroke-width:0.26458332"
         id="path7620" />
      <path
         d="m 152.61783,131.69304 q 0.0744,0.0667 0.12247,0.16743 0.0481,0.10077 0.0481,0.26045 0,0.15813 -0.0574,0.2899 -0.0574,0.13178 -0.16123,0.22944 -0.11627,0.10853 -0.2744,0.16124 -0.15658,0.0512 -0.34416,0.0512 -0.19224,0 -0.37828,-0.0465 -0.18603,-0.045 -0.3054,-0.0992 v -0.32401 h 0.0233 q 0.13178,0.0868 0.31006,0.14417 0.17828,0.0574 0.34416,0.0574 0.0977,0 0.20774,-0.0326 0.11007,-0.0326 0.17829,-0.0961 0.0713,-0.0682 0.10542,-0.15038 0.0357,-0.0822 0.0357,-0.20774 0,-0.12402 -0.0403,-0.20464 -0.0388,-0.0822 -0.10852,-0.12867 -0.0698,-0.0481 -0.16899,-0.0651 -0.0992,-0.0186 -0.21394,-0.0186 h -0.13952 v -0.25735 h 0.10852 q 0.23564,0 0.37517,-0.0977 0.14107,-0.0992 0.14107,-0.28836 0,-0.0837 -0.0357,-0.14573 -0.0357,-0.0636 -0.0992,-0.10387 -0.0667,-0.0403 -0.14263,-0.0558 -0.076,-0.0155 -0.17208,-0.0155 -0.14728,0 -0.31316,0.0527 -0.16588,0.0527 -0.31316,0.14883 h -0.0155 v -0.32401 q 0.11007,-0.0543 0.293,-0.0992 0.18449,-0.0465 0.35657,-0.0465 0.16898,0 0.29766,0.031 0.12867,0.031 0.23254,0.0992 0.11162,0.0744 0.16898,0.17983 0.0574,0.10542 0.0574,0.2465 0,0.19223 -0.13642,0.33641 -0.13488,0.14263 -0.31936,0.17983 v 0.0217 q 0.0744,0.0124 0.17053,0.0527 0.0961,0.0387 0.16278,0.0977 z"
         style="font-size:3.17499995px;fill:#7c848b;fill-opacity:0.71372549;stroke-width:0.26458332"
         id="path7622" />
    </g>
    <g
       aria-label="14"
       style="font-style:normal;font-weight:normal;font-size:4.23333311px;line-height:1.25;font-family:sans-serif;letter-spacing:0px;word-spacing:0px;fill:#000000;fill-opacity:1;stroke:none;stroke-width:0.26458332"
       id="text6472">
      <path
         d="m 142.54569,140.46249 h -1.24954 v -0.23564 h 0.4806 v -1.54719 h -0.4806 v -0.21084 q 0.0977,0 0.20929,-0.0155 0.11163,-0.017 0.16899,-0.048 0.0713,-0.0388 0.11162,-0.0977 0.0419,-0.0605 0.0481,-0.16123 h 0.24029 v 2.08049 h 0.47129 z"
         style="font-size:3.17499995px;fill:#7c848b;fill-opacity:0.71372549;stroke-width:0.26458332"
         id="path7615" />
      <path
         d="m 144.75176,139.81292 h -0.34262 v 0.64957 h -0.29765 v -0.64957 h -1.10536 v -0.35657 l 1.11776,-1.30224 h 0.28525 v 1.41076 h 0.34262 z m -0.64027,-0.24805 v -1.04179 l -0.89452,1.04179 z"
         style="font-size:3.17499995px;fill:#7c848b;fill-opacity:0.71372549;stroke-width:0.26458332"
         id="path7617" />
    </g>
    <g
       aria-label="15"
       style="font-style:normal;font-weight:normal;font-size:4.23333311px;line-height:1.25;font-family:sans-serif;letter-spacing:0px;word-spacing:0px;fill:#000000;fill-opacity:1;stroke:none;stroke-width:0.26458332"
       id="text6476">
      <path
         d="m 133.17919,146.39159 h -1.24954 v -0.23565 h 0.48059 v -1.54719 h -0.48059 v -0.21084 q 0.0977,0 0.20929,-0.0155 0.11162,-0.0171 0.16899,-0.0481 0.0713,-0.0388 0.11162,-0.0977 0.0419,-0.0605 0.0481,-0.16123 h 0.24029 v 2.08049 h 0.47129 z"
         style="font-size:3.17499995px;fill:#7c848b;fill-opacity:0.71372549;stroke-width:0.26458332"
         id="path7610" />
      <path
         d="m 135.31394,145.6583 q 0,0.16123 -0.0589,0.30851 -0.0589,0.14727 -0.16123,0.24804 -0.11162,0.10852 -0.26665,0.16743 -0.15348,0.0574 -0.35657,0.0574 -0.18913,0 -0.36431,-0.0403 -0.17519,-0.0388 -0.29611,-0.0946 v -0.32711 h 0.0217 q 0.12713,0.0806 0.29766,0.13797 0.17053,0.0558 0.33486,0.0558 0.11007,0 0.21239,-0.031 0.10387,-0.031 0.18449,-0.10852 0.0682,-0.0667 0.10232,-0.15968 0.0357,-0.093 0.0357,-0.21549 0,-0.11938 -0.0419,-0.20154 -0.0403,-0.0822 -0.11318,-0.13178 -0.0806,-0.0589 -0.19688,-0.0822 -0.11472,-0.0248 -0.25735,-0.0248 -0.13643,0 -0.26355,0.0186 -0.12557,0.0186 -0.21704,0.0372 v -1.18907 h 1.38906 v 0.2713 h -1.08986 v 0.61392 q 0.0667,-0.006 0.13643,-0.009 0.0698,-0.003 0.12092,-0.003 0.18759,0 0.32867,0.0326 0.14107,0.031 0.25889,0.11162 0.12403,0.0853 0.19224,0.22014 0.0682,0.13488 0.0682,0.33797 z"
         style="font-size:3.17499995px;fill:#7c848b;fill-opacity:0.71372549;stroke-width:0.26458332"
         id="path7612" />
    </g>
    <g
       aria-label="16"
       style="font-style:normal;font-weight:normal;font-size:4.23333311px;line-height:1.25;font-family:sans-serif;letter-spacing:0px;word-spacing:0px;fill:#000000;fill-opacity:1;stroke:none;stroke-width:0.26458332"
       id="text6480">
      <path
         d="m 123.04197,150.04744 h -1.24954 v -0.23564 h 0.48059 v -1.5472 h -0.48059 v -0.21084 q 0.0977,0 0.20929,-0.0155 0.11162,-0.0171 0.16898,-0.0481 0.0713,-0.0388 0.11162,-0.0977 0.0419,-0.0605 0.0481,-0.16123 h 0.2403 v 2.0805 h 0.47129 z"
         style="font-size:3.17499995px;fill:#7c848b;fill-opacity:0.71372549;stroke-width:0.26458332"
         id="path7605" />
      <path
         d="m 125.22943,149.29865 q 0,0.35191 -0.23254,0.57516 -0.231,0.22169 -0.56741,0.22169 -0.17053,0 -0.31006,-0.0527 -0.13953,-0.0527 -0.2465,-0.15658 -0.13332,-0.12868 -0.20618,-0.34107 -0.0713,-0.21239 -0.0713,-0.51159 0,-0.30696 0.0651,-0.54415 0.0667,-0.2372 0.21084,-0.42168 0.13643,-0.17519 0.35192,-0.27286 0.21549,-0.0992 0.5023,-0.0992 0.0915,0 0.15347,0.008 0.062,0.008 0.12558,0.0279 v 0.29611 h -0.0155 q -0.0434,-0.0233 -0.13178,-0.0434 -0.0868,-0.0217 -0.17828,-0.0217 -0.33332,0 -0.53175,0.20929 -0.19844,0.20773 -0.231,0.56275 0.13023,-0.0791 0.2558,-0.11937 0.12713,-0.0419 0.29301,-0.0419 0.14727,0 0.2589,0.0279 0.11317,0.0264 0.23099,0.10852 0.13642,0.0946 0.20464,0.23874 0.0698,0.14418 0.0698,0.35037 z m -0.31471,0.0124 q 0,-0.14418 -0.0434,-0.23874 -0.0418,-0.0946 -0.13952,-0.16434 -0.0713,-0.0496 -0.15813,-0.0651 -0.0868,-0.0155 -0.18139,-0.0155 -0.13177,0 -0.24494,0.031 -0.11317,0.031 -0.23255,0.0961 -0.003,0.0341 -0.005,0.0667 -0.002,0.031 -0.002,0.0791 0,0.24495 0.0496,0.38757 0.0512,0.14108 0.13953,0.22325 0.0713,0.0682 0.15348,0.10077 0.0837,0.031 0.18138,0.031 0.22479,0 0.35347,-0.13642 0.12867,-0.13798 0.12867,-0.39533 z"
         style="font-size:3.17499995px;fill:#7c848b;fill-opacity:0.71372549;stroke-width:0.26458332"
         id="path7607" />
    </g>
    <text
       xml:space="preserve"
       style="font-style:normal;font-weight:normal;font-size:4.23333311px;line-height:1.25;font-family:sans-serif;letter-spacing:0px;word-spacing:0px;fill:#000000;fill-opacity:1;stroke:none;stroke-width:0.26458332"
       x="110.69758"
       y="151.99077"
       id="text6484"><tspan
         sodipodi:role="line"
         id="tspan6482"
         x="110.69758"
         y="155.85297"
         style="font-size:3.17499995px;fill:#7c848b;fill-opacity:0.71372549;stroke-width:0.26458332" /></text>
    <text
       xml:space="preserve"
       style="font-style:normal;font-weight:normal;font-size:4.23333311px;line-height:1.25;font-family:sans-serif;letter-spacing:0px;word-spacing:0px;fill:#000000;fill-opacity:1;stroke:none;stroke-width:0.26458332"
       x="89.204842"
       y="149.10561"
       id="text6492"><tspan
         sodipodi:role="line"
         id="tspan6490"
         x="89.204842"
         y="152.9678"
         style="font-size:3.17499995px;fill:#7c848b;fill-opacity:0.71372549;stroke-width:0.26458332" /></text>
    <text
       xml:space="preserve"
       style="font-style:normal;font-weight:normal;font-size:4.23333311px;line-height:1.25;font-family:sans-serif;letter-spacing:0px;word-spacing:0px;fill:#000000;fill-opacity:1;stroke:none;stroke-width:0.26458332"
       x="79.515396"
       y="144.19113"
       id="text6496"><tspan
         sodipodi:role="line"
         id="tspan6494"
         x="79.515396"
         y="148.05333"
         style="font-size:3.17499995px;fill:#7c848b;fill-opacity:0.71372549;stroke-width:0.26458332" /></text>
    <text
       xml:space="preserve"
       style="font-style:normal;font-weight:normal;font-size:4.23333311px;line-height:1.25;font-family:sans-serif;letter-spacing:0px;word-spacing:0px;fill:#000000;fill-opacity:1;stroke:none;stroke-width:0.26458332"
       x="70.508308"
       y="137.9313"
       id="text6500"><tspan
         sodipodi:role="line"
         id="tspan6498"
         x="70.508308"
         y="141.7935"
         style="font-size:3.17499995px;fill:#7c848b;fill-opacity:0.71372549;stroke-width:0.26458332" /></text>
    <text
       xml:space="preserve"
       style="font-style:normal;font-weight:normal;font-size:4.23333311px;line-height:1.25;font-family:sans-serif;letter-spacing:0px;word-spacing:0px;fill:#000000;fill-opacity:1;stroke:none;stroke-width:0.26458332"
       x="62.835644"
       y="130.0883"
       id="text6504"><tspan
         sodipodi:role="line"
         id="tspan6502"
         x="62.835644"
         y="133.9505"
         style="font-size:3.17499995px;fill:#7c848b;fill-opacity:0.71372549;stroke-width:0.26458332" /></text>
    <text
       xml:space="preserve"
       style="font-style:normal;font-weight:normal;font-size:4.23333311px;line-height:1.25;font-family:sans-serif;letter-spacing:0px;word-spacing:0px;fill:#000000;fill-opacity:1;stroke:none;stroke-width:0.26458332"
       x="56.426327"
       y="120.52038"
       id="text6508"><tspan
         sodipodi:role="line"
         id="tspan6506"
         x="56.426327"
         y="124.38258"
         style="font-size:3.17499995px;fill:#7c848b;fill-opacity:0.71372549;stroke-width:0.26458332" /></text>
    <g
       aria-label="24"
       style="font-style:normal;font-weight:normal;font-size:4.23333311px;line-height:1.25;font-family:sans-serif;letter-spacing:0px;word-spacing:0px;fill:#000000;fill-opacity:1;stroke:none;stroke-width:0.26458332"
       id="text6512">
      <path
         d="m 53.565779,110.24456 h -1.562695 v -0.32401 q 0.162781,-0.13953 0.325561,-0.27905 0.164331,-0.13953 0.305408,-0.27751 0.297656,-0.28835 0.407727,-0.45733 0.110071,-0.17053 0.110071,-0.36742 0,-0.17984 -0.119373,-0.28061 -0.117822,-0.10231 -0.330212,-0.10231 -0.141077,0 -0.305408,0.0496 -0.164331,0.0496 -0.32091,0.15192 h -0.0155 v -0.32556 q 0.11007,-0.0543 0.293005,-0.0992 0.184485,-0.045 0.356567,-0.045 0.355017,0 0.556556,0.17209 0.201538,0.17053 0.201538,0.46354 0,0.13177 -0.03411,0.24649 -0.03256,0.11317 -0.09767,0.21549 -0.06046,0.0961 -0.142627,0.18914 -0.08062,0.093 -0.196887,0.20619 -0.165882,0.16278 -0.342615,0.31626 -0.176734,0.15193 -0.330213,0.28215 h 1.241785 z"
         style="font-size:3.17499995px;fill:#7c848b;fill-opacity:0.71372549;stroke-width:0.26458332"
         id="path7600" />
      <path
         d="m 55.640071,109.59499 h -0.342615 v 0.64957 H 54.9998 v -0.64957 h -1.105359 v -0.35657 l 1.117761,-1.30225 h 0.285254 v 1.41077 h 0.342615 z M 54.9998,109.34694 v -1.0418 l -0.894519,1.0418 z"
         style="font-size:3.17499995px;fill:#7c848b;fill-opacity:0.71372549;stroke-width:0.26458332"
         id="path7602" />
    </g>
    <g
       aria-label="25"
       style="font-style:normal;font-weight:normal;font-size:4.23333311px;line-height:1.25;font-family:sans-serif;letter-spacing:0px;word-spacing:0px;fill:#000000;fill-opacity:1;stroke:none;stroke-width:0.26458332"
       id="text6516">
      <path
         d="m 51.002852,98.975739 h -1.562695 v -0.324012 q 0.16278,-0.139526 0.325561,-0.279052 0.164331,-0.139527 0.305408,-0.277503 0.297656,-0.288354 0.407727,-0.457336 0.110071,-0.170533 0.110071,-0.36742 0,-0.179834 -0.119373,-0.280603 -0.117822,-0.102319 -0.330212,-0.102319 -0.141077,0 -0.305408,0.04961 -0.164331,0.04961 -0.320911,0.151929 h -0.0155 V 96.76347 q 0.110071,-0.05426 0.293006,-0.09922 0.184485,-0.04496 0.356567,-0.04496 0.355017,0 0.556555,0.172083 0.201538,0.170532 0.201538,0.463537 0,0.131775 -0.03411,0.246497 -0.03256,0.113171 -0.09767,0.215491 -0.06046,0.09612 -0.142626,0.189135 -0.08062,0.09302 -0.196888,0.206189 -0.165881,0.162781 -0.342614,0.31626 -0.176734,0.151929 -0.330213,0.282153 h 1.241785 z"
         style="font-size:3.17499995px;fill:#7c848b;fill-opacity:0.71372549;stroke-width:0.26458332"
         id="path7595" />
      <path
         d="m 53.00583,98.24245 q 0,0.16123 -0.05891,0.308508 -0.05891,0.147278 -0.16123,0.248047 -0.111621,0.108521 -0.266651,0.167432 -0.153479,0.05736 -0.356567,0.05736 -0.189136,0 -0.364319,-0.04031 -0.175183,-0.03876 -0.296106,-0.09457 V 98.56181 h 0.0217 q 0.127124,0.08062 0.297656,0.137976 0.170533,0.05581 0.334864,0.05581 0.11007,0 0.21239,-0.03101 0.103869,-0.03101 0.184485,-0.10852 0.06821,-0.06666 0.102319,-0.159681 0.03566,-0.09302 0.03566,-0.21549 0,-0.119373 -0.04186,-0.201538 -0.04031,-0.08217 -0.113172,-0.131775 -0.08062,-0.05891 -0.196887,-0.08217 -0.114721,-0.02481 -0.257348,-0.02481 -0.136426,0 -0.26355,0.0186 -0.125574,0.0186 -0.217041,0.03721 v -1.189075 h 1.389062 v 0.271302 h -1.089856 v 0.613916 q 0.06666,-0.0062 0.136426,-0.0093 0.06976,-0.0031 0.120923,-0.0031 0.187585,0 0.328662,0.03256 0.141077,0.03101 0.258899,0.111622 0.124023,0.08527 0.192236,0.220141 0.06821,0.134876 0.06821,0.337964 z"
         style="font-size:3.17499995px;fill:#7c848b;fill-opacity:0.71372549;stroke-width:0.26458332"
         id="path7597" />
    </g>
    <g
       aria-label="26"
       style="font-style:normal;font-weight:normal;font-size:4.23333311px;line-height:1.25;font-family:sans-serif;letter-spacing:0px;word-spacing:0px;fill:#000000;fill-opacity:1;stroke:none;stroke-width:0.26458332"
       id="text6520">
      <path
         d="m 50.456778,87.258476 h -1.562695 v -0.324011 q 0.16278,-0.139526 0.325561,-0.279053 0.164331,-0.139526 0.305408,-0.277502 0.297656,-0.288355 0.407727,-0.457337 0.110071,-0.170532 0.110071,-0.367419 0,-0.179834 -0.119373,-0.280603 -0.117822,-0.102319 -0.330212,-0.102319 -0.141077,0 -0.305408,0.04961 -0.164331,0.04961 -0.320911,0.151929 h -0.0155 v -0.325562 q 0.110071,-0.05426 0.293006,-0.09922 0.184485,-0.04496 0.356567,-0.04496 0.355017,0 0.556555,0.172082 0.201538,0.170533 0.201538,0.463538 0,0.131775 -0.03411,0.246497 -0.03256,0.113171 -0.09767,0.21549 -0.06046,0.09612 -0.142627,0.189136 -0.08062,0.09302 -0.196888,0.206189 -0.165881,0.162781 -0.342614,0.31626 -0.176734,0.151929 -0.330213,0.282153 h 1.241785 z"
         style="font-size:3.17499995px;fill:#7c848b;fill-opacity:0.71372549;stroke-width:0.26458332"
         id="path7590" />
      <path
         d="m 52.512466,86.509685 q 0,0.351916 -0.232544,0.575158 -0.230993,0.221692 -0.567407,0.221692 -0.170532,0 -0.310058,-0.05271 -0.139527,-0.05271 -0.246497,-0.156579 -0.133325,-0.128675 -0.206189,-0.341065 -0.07131,-0.21239 -0.07131,-0.511596 0,-0.306958 0.06511,-0.544153 0.06666,-0.237195 0.21084,-0.42168 0.136425,-0.175183 0.351916,-0.272851 0.215491,-0.09922 0.502295,-0.09922 0.09147,0 0.153479,0.0078 0.06201,0.0078 0.125574,0.02791 v 0.296106 h -0.0155 q -0.04341,-0.02325 -0.131775,-0.04341 -0.08682,-0.0217 -0.178284,-0.0217 -0.333313,0 -0.53175,0.20929 -0.198438,0.207739 -0.230994,0.562756 0.130225,-0.07906 0.255798,-0.119372 0.127124,-0.04186 0.293006,-0.04186 0.147278,0 0.258899,0.02791 0.113171,0.02635 0.230993,0.10852 0.136426,0.09457 0.204639,0.238746 0.06976,0.144177 0.06976,0.350366 z m -0.314709,0.0124 q 0,-0.144177 -0.04341,-0.238745 -0.04186,-0.09457 -0.139527,-0.164331 -0.07131,-0.04961 -0.15813,-0.06511 -0.08682,-0.0155 -0.181384,-0.0155 -0.131775,0 -0.244946,0.03101 -0.113172,0.03101 -0.232544,0.09612 -0.0031,0.03411 -0.0047,0.06666 -0.0016,0.03101 -0.0016,0.07906 0,0.244947 0.04961,0.387574 0.05116,0.141076 0.139526,0.223242 0.07131,0.06821 0.153479,0.100769 0.08372,0.03101 0.181385,0.03101 0.224792,0 0.353466,-0.136426 0.128675,-0.137976 0.128675,-0.395325 z"
         style="font-size:3.17499995px;fill:#7c848b;fill-opacity:0.71372549;stroke-width:0.26458332"
         id="path7592" />
    </g>
    <text
       xml:space="preserve"
       style="font-style:normal;font-weight:normal;font-size:4.23333311px;line-height:1.25;font-family:sans-serif;letter-spacing:0px;word-spacing:0px;fill:#000000;fill-opacity:1;stroke:none;stroke-width:0.26458332"
       x="50.123093"
       y="75.895973"
       id="text6524"><tspan
         sodipodi:role="line"
         id="tspan6522"
         x="50.123093"
         y="79.758171"
         style="font-size:3.17499995px;fill:#7c848b;fill-opacity:0.71372549;stroke-width:0.26458332" /></text>
    <g
       aria-label="28"
       style="font-style:normal;font-weight:normal;font-size:4.23333311px;line-height:1.25;font-family:sans-serif;letter-spacing:0px;word-spacing:0px;fill:#000000;fill-opacity:1;stroke:none;stroke-width:0.26458332"
       id="text6528">
      <path
         d="m 55.048266,64.910629 h -1.562695 v -0.324011 q 0.16278,-0.139526 0.325561,-0.279053 0.164331,-0.139526 0.305408,-0.277502 0.297656,-0.288355 0.407727,-0.457337 0.110071,-0.170532 0.110071,-0.367419 0,-0.179834 -0.119373,-0.280603 -0.117822,-0.102319 -0.330212,-0.102319 -0.141077,0 -0.305408,0.04961 -0.164331,0.04961 -0.320911,0.151929 h -0.0155 v -0.325562 q 0.110071,-0.05426 0.293006,-0.09922 0.184485,-0.04496 0.356567,-0.04496 0.355017,0 0.556555,0.172083 0.201538,0.170532 0.201538,0.463537 0,0.131775 -0.03411,0.246497 -0.03256,0.113171 -0.09767,0.21549 -0.06046,0.09612 -0.142626,0.189136 -0.08062,0.09302 -0.196888,0.206189 -0.165881,0.162781 -0.342614,0.31626 -0.176734,0.151929 -0.330213,0.282153 h 1.241785 z"
         style="font-size:3.17499995px;fill:#7c848b;fill-opacity:0.71372549;stroke-width:0.26458332"
         id="path7585" />
      <path
         d="m 57.086901,64.267258 q 0,0.299206 -0.234094,0.497644 -0.232544,0.198437 -0.586011,0.198437 -0.375171,0 -0.598413,-0.193786 -0.221692,-0.193787 -0.221692,-0.496094 0,-0.192236 0.111621,-0.347266 0.111621,-0.156579 0.31471,-0.248047 v -0.0093 q -0.186036,-0.09922 -0.275953,-0.217041 -0.08837,-0.117823 -0.08837,-0.294556 0,-0.260449 0.21394,-0.434082 0.213941,-0.173633 0.544153,-0.173633 0.345715,0 0.551904,0.165881 0.206189,0.165882 0.206189,0.42168 0,0.15658 -0.09767,0.308508 -0.09767,0.150379 -0.286804,0.235645 v 0.0093 q 0.217041,0.09302 0.331762,0.229443 0.114722,0.136426 0.114722,0.347266 z m -0.36742,-1.127063 q 0,-0.165882 -0.128674,-0.26355 -0.127124,-0.09922 -0.325561,-0.09922 -0.195337,0 -0.320911,0.09302 -0.124023,0.09302 -0.124023,0.251147 0,0.111621 0.06201,0.193787 0.06356,0.08061 0.190686,0.144177 0.05736,0.0279 0.164331,0.07286 0.108521,0.04496 0.21084,0.07441 0.153479,-0.102319 0.21239,-0.21239 0.05891,-0.110071 0.05891,-0.254248 z m 0.04806,1.156518 q 0,-0.142627 -0.06356,-0.227893 -0.06201,-0.08682 -0.244947,-0.173633 -0.07286,-0.03411 -0.15968,-0.06356 -0.08682,-0.02946 -0.230994,-0.08217 -0.139526,0.07596 -0.224792,0.206189 -0.08372,0.130224 -0.08372,0.294555 0,0.20929 0.144177,0.345716 0.144178,0.136426 0.36587,0.136426 0.226342,0 0.361218,-0.116272 0.136426,-0.116272 0.136426,-0.319361 z"
         style="font-size:3.17499995px;fill:#7c848b;fill-opacity:0.71372549;stroke-width:0.26458332"
         id="path7587" />
    </g>
    <text
       xml:space="preserve"
       style="font-style:normal;font-weight:normal;font-size:4.23333311px;line-height:1.25;font-family:sans-serif;letter-spacing:0px;word-spacing:0px;fill:#000000;fill-opacity:1;stroke:none;stroke-width:0.26458332"
       x="58.112495"
       y="54.234356"
       id="text6532"><tspan
         sodipodi:role="line"
         id="tspan6530"
         x="58.112495"
         y="58.096554"
         style="font-size:3.17499995px;fill:#7c848b;fill-opacity:0.71372549;stroke-width:0.26458332" /></text>
    <g
       aria-label="30"
       style="font-style:normal;font-weight:normal;font-size:4.23333311px;line-height:1.25;font-family:sans-serif;letter-spacing:0px;word-spacing:0px;fill:#000000;fill-opacity:1;stroke:none;stroke-width:0.26458332"
       id="text6536">
      <path
         d="m 66.47337,44.238808 q 0.07441,0.06666 0.122473,0.167432 0.04806,0.100769 0.04806,0.260449 0,0.15813 -0.05736,0.289905 -0.05736,0.131775 -0.161231,0.229443 -0.116272,0.108521 -0.274402,0.161231 -0.156579,0.05116 -0.344165,0.05116 -0.192236,0 -0.378271,-0.04651 -0.186035,-0.04496 -0.305408,-0.09922 v -0.324011 h 0.02326 q 0.131774,0.08682 0.310058,0.144177 0.178284,0.05736 0.344165,0.05736 0.09767,0 0.207739,-0.03256 0.110071,-0.03256 0.178284,-0.09612 0.07131,-0.06821 0.10542,-0.150379 0.03566,-0.08217 0.03566,-0.207739 0,-0.124024 -0.04031,-0.204639 -0.03876,-0.08217 -0.10852,-0.128674 -0.06976,-0.04806 -0.168982,-0.06511 -0.09922,-0.0186 -0.213941,-0.0186 h -0.139526 v -0.257349 h 0.10852 q 0.235645,0 0.375171,-0.09767 0.141077,-0.09922 0.141077,-0.288354 0,-0.08372 -0.03566,-0.145728 -0.03566,-0.06356 -0.09922,-0.10387 -0.06666,-0.04031 -0.142627,-0.05581 -0.07596,-0.0155 -0.172083,-0.0155 -0.147278,0 -0.313159,0.05271 -0.165881,0.05271 -0.313159,0.148828 h -0.0155 v -0.324011 q 0.110071,-0.05426 0.293005,-0.09922 0.184485,-0.04651 0.356568,-0.04651 0.168981,0 0.297656,0.03101 0.128674,0.03101 0.232544,0.09922 0.111621,0.07441 0.168982,0.179834 0.05736,0.10542 0.05736,0.246496 0,0.192237 -0.136425,0.336414 -0.134876,0.142627 -0.319361,0.179834 v 0.0217 q 0.07441,0.0124 0.170533,0.05271 0.09612,0.03876 0.16278,0.09767 z"
         style="font-size:3.17499995px;fill:#92999e;fill-opacity:0.94117647;stroke-width:0.26458332"
         id="path7580" />
      <path
         d="m 68.69494,44.1954 q 0,0.621668 -0.195337,0.913123 -0.193787,0.289905 -0.603064,0.289905 -0.415478,0 -0.607715,-0.294556 -0.190686,-0.294556 -0.190686,-0.905371 0,-0.615466 0.193787,-0.908472 0.193787,-0.294555 0.604614,-0.294555 0.415479,0 0.606165,0.299206 0.192236,0.297656 0.192236,0.90072 z m -0.407727,0.703833 q 0.05426,-0.125573 0.07286,-0.294555 0.02015,-0.170533 0.02015,-0.409278 0,-0.235644 -0.02015,-0.409277 -0.0186,-0.173633 -0.07441,-0.294556 -0.05426,-0.119372 -0.148828,-0.179834 -0.09302,-0.06046 -0.240296,-0.06046 -0.145727,0 -0.241846,0.06046 -0.09457,0.06046 -0.150378,0.182935 -0.05271,0.114722 -0.07286,0.299206 -0.0186,0.184485 -0.0186,0.404627 0,0.241846 0.01705,0.404626 0.01705,0.162781 0.07286,0.291455 0.05116,0.120923 0.144177,0.184485 0.09457,0.06356 0.249597,0.06356 0.145728,0 0.241846,-0.06046 0.09612,-0.06046 0.148828,-0.182935 z"
         style="font-size:3.17499995px;fill:#92999e;fill-opacity:0.94117647;stroke-width:0.26458332"
         id="path7582" />
    </g>
    <g
       aria-label="31"
       style="font-style:normal;font-weight:normal;font-size:4.23333311px;line-height:1.25;font-family:sans-serif;letter-spacing:0px;word-spacing:0px;fill:#000000;fill-opacity:1;stroke:none;stroke-width:0.26458332"
       id="text6540">
      <path
         d="m 74.805936,36.443051 q 0.07441,0.06666 0.122473,0.167432 0.04806,0.100769 0.04806,0.260449 0,0.15813 -0.05736,0.289905 -0.05736,0.131775 -0.16123,0.229443 -0.116272,0.108521 -0.274402,0.161231 -0.15658,0.05116 -0.344165,0.05116 -0.192237,0 -0.378272,-0.04651 -0.186035,-0.04496 -0.305408,-0.09922 v -0.324011 h 0.02326 q 0.131775,0.08682 0.310058,0.144177 0.178284,0.05736 0.344166,0.05736 0.09767,0 0.207739,-0.03256 0.110071,-0.03256 0.178283,-0.09612 0.07131,-0.06821 0.10542,-0.150378 0.03566,-0.08217 0.03566,-0.207739 0,-0.124024 -0.04031,-0.204639 -0.03876,-0.08217 -0.10852,-0.128674 -0.06976,-0.04806 -0.168982,-0.06511 -0.09922,-0.0186 -0.21394,-0.0186 H 73.988931 V 36.1733 h 0.108521 q 0.235644,0 0.375171,-0.09767 0.141076,-0.09922 0.141076,-0.288355 0,-0.08372 -0.03566,-0.145727 -0.03566,-0.06356 -0.09922,-0.10387 -0.06666,-0.04031 -0.142627,-0.05581 -0.07596,-0.0155 -0.172083,-0.0155 -0.147277,0 -0.313159,0.05271 -0.165881,0.05271 -0.313159,0.148828 h -0.0155 v -0.324012 q 0.110071,-0.05426 0.293005,-0.09922 0.184485,-0.04651 0.356568,-0.04651 0.168982,0 0.297656,0.03101 0.128674,0.03101 0.232544,0.09922 0.111621,0.07441 0.168982,0.179834 0.05736,0.105419 0.05736,0.246496 0,0.192236 -0.136426,0.336414 -0.134875,0.142627 -0.31936,0.179834 v 0.0217 q 0.07441,0.0124 0.170532,0.05271 0.09612,0.03876 0.162781,0.09767 z"
         style="font-size:3.17499995px;fill:#92999e;fill-opacity:0.94117647;stroke-width:0.26458332"
         id="path7575" />
      <path
         d="m 76.898831,37.554611 h -1.249536 v -0.235644 h 0.480591 v -1.547193 h -0.480591 v -0.21084 q 0.09767,0 0.209289,-0.0155 0.111622,-0.01705 0.168982,-0.04806 0.07131,-0.03876 0.111621,-0.09767 0.04186,-0.06046 0.04806,-0.16123 h 0.240295 v 2.080493 h 0.471289 z"
         style="font-size:3.17499995px;fill:#92999e;fill-opacity:0.94117647;stroke-width:0.26458332"
         id="path7577" />
    </g>
    <g
       aria-label="32"
       style="font-style:normal;font-weight:normal;font-size:4.23333311px;line-height:1.25;font-family:sans-serif;letter-spacing:0px;word-spacing:0px;fill:#000000;fill-opacity:1;stroke:none;stroke-width:0.26458332"
       id="text6544">
      <path
         d="m 84.283948,30.726161 q 0.07441,0.06666 0.122473,0.167431 0.04806,0.10077 0.04806,0.26045 0,0.15813 -0.05736,0.289904 -0.05736,0.131775 -0.16123,0.229444 -0.116272,0.10852 -0.274402,0.16123 -0.15658,0.05116 -0.344165,0.05116 -0.192237,0 -0.378272,-0.04651 -0.186035,-0.04496 -0.305407,-0.09922 v -0.324011 h 0.02325 q 0.131775,0.08682 0.310059,0.144177 0.178283,0.05736 0.344165,0.05736 0.09767,0 0.207739,-0.03256 0.110071,-0.03256 0.178284,-0.09612 0.07131,-0.06821 0.105419,-0.150378 0.03566,-0.08217 0.03566,-0.20774 0,-0.124023 -0.04031,-0.204638 -0.03876,-0.08217 -0.108521,-0.128675 -0.06976,-0.04806 -0.168982,-0.06511 -0.09922,-0.0186 -0.21394,-0.0186 H 83.466943 V 30.45641 h 0.108521 q 0.235644,0 0.375171,-0.09767 0.141076,-0.09922 0.141076,-0.288354 0,-0.08372 -0.03566,-0.145728 -0.03566,-0.06356 -0.09922,-0.103869 -0.06666,-0.04031 -0.142627,-0.05581 -0.07596,-0.0155 -0.172083,-0.0155 -0.147277,0 -0.313159,0.05271 -0.165881,0.05271 -0.313159,0.148828 h -0.0155 v -0.324011 q 0.110071,-0.05426 0.293006,-0.09922 0.184484,-0.04651 0.356567,-0.04651 0.168982,0 0.297656,0.03101 0.128674,0.03101 0.232544,0.09922 0.111621,0.07441 0.168982,0.179834 0.05736,0.10542 0.05736,0.246497 0,0.192236 -0.136426,0.336413 -0.134875,0.142627 -0.31936,0.179834 v 0.0217 q 0.07441,0.0124 0.170532,0.05271 0.09612,0.03876 0.162781,0.09767 z"
         style="font-size:3.17499995px;fill:#92999e;fill-opacity:0.94117647;stroke-width:0.26458332"
         id="path7570" />
      <path
         d="M 86.508618,31.837721 H 84.945923 V 31.51371 q 0.16278,-0.139527 0.325561,-0.279053 0.164331,-0.139526 0.305408,-0.277503 0.297656,-0.288354 0.407727,-0.457336 0.110071,-0.170532 0.110071,-0.367419 0,-0.179834 -0.119373,-0.280603 -0.117822,-0.10232 -0.330212,-0.10232 -0.141077,0 -0.305408,0.04961 -0.164331,0.04961 -0.320911,0.151928 h -0.0155 v -0.325561 q 0.11007,-0.05426 0.293005,-0.09922 0.184485,-0.04496 0.356567,-0.04496 0.355017,0 0.556555,0.172082 0.201539,0.170532 0.201539,0.463538 0,0.131775 -0.03411,0.246496 -0.03256,0.113172 -0.09767,0.215491 -0.06046,0.09612 -0.142627,0.189136 -0.08062,0.09302 -0.196888,0.206189 -0.165881,0.16278 -0.342614,0.316259 -0.176734,0.151929 -0.330213,0.282154 h 1.241785 z"
         style="font-size:3.17499995px;fill:#92999e;fill-opacity:0.94117647;stroke-width:0.26458332"
         id="path7572" />
    </g>
    <text
       xml:space="preserve"
       style="font-style:normal;font-weight:normal;font-size:4.23333311px;line-height:1.25;font-family:sans-serif;letter-spacing:0px;word-spacing:0px;fill:#000000;fill-opacity:1;stroke:none;stroke-width:0.26458332"
       x="92.579994"
       y="27.962313"
       id="text6548"><tspan
         sodipodi:role="line"
         id="tspan6546"
         x="92.579994"
         y="31.824511"
         style="font-size:3.17499995px;fill:#92999e;fill-opacity:0.94117647;stroke-width:0.26458332" /></text>
    <g
       aria-label="34"
       style="font-style:normal;font-weight:normal;font-size:4.23333311px;line-height:1.25;font-family:sans-serif;letter-spacing:0px;word-spacing:0px;fill:#000000;fill-opacity:1;stroke:none;stroke-width:0.26458332"
       id="text6552">
      <path
         d="m 105.16933,25.734177 q 0.0744,0.06666 0.12247,0.167432 0.0481,0.100769 0.0481,0.260449 0,0.15813 -0.0574,0.289905 -0.0574,0.131775 -0.16123,0.229443 -0.11627,0.108521 -0.2744,0.161231 -0.15658,0.05116 -0.34416,0.05116 -0.19224,0 -0.37828,-0.04651 -0.18603,-0.04496 -0.3054,-0.09922 v -0.324011 h 0.0233 q 0.13178,0.08682 0.31006,0.144177 0.17828,0.05736 0.34416,0.05736 0.0977,0 0.20774,-0.03256 0.11007,-0.03256 0.17829,-0.09612 0.0713,-0.06821 0.10542,-0.150379 0.0357,-0.08216 0.0357,-0.207739 0,-0.124024 -0.0403,-0.204639 -0.0388,-0.08216 -0.10852,-0.128674 -0.0698,-0.04806 -0.16899,-0.06511 -0.0992,-0.0186 -0.21394,-0.0186 h -0.13952 v -0.257349 h 0.10852 q 0.23564,0 0.37517,-0.09767 0.14108,-0.09922 0.14108,-0.288355 0,-0.08372 -0.0357,-0.145727 -0.0357,-0.06356 -0.0992,-0.10387 -0.0667,-0.04031 -0.14263,-0.05581 -0.076,-0.0155 -0.17208,-0.0155 -0.14728,0 -0.31316,0.05271 -0.16588,0.05271 -0.31316,0.148828 h -0.0155 V 24.63502 q 0.11007,-0.05426 0.293,-0.09922 0.18449,-0.04651 0.35657,-0.04651 0.16898,0 0.29766,0.03101 0.12867,0.03101 0.23254,0.09922 0.11162,0.07441 0.16898,0.179834 0.0574,0.10542 0.0574,0.246496 0,0.192237 -0.13642,0.336414 -0.13488,0.142627 -0.31936,0.179834 v 0.0217 q 0.0744,0.0124 0.17053,0.05271 0.0961,0.03876 0.16278,0.09767 z"
         style="font-size:3.17499995px;fill:#92999e;fill-opacity:0.94117647;stroke-width:0.26458332"
         id="path7565" />
      <path
         d="m 107.44671,26.196165 h -0.34261 v 0.649572 h -0.29766 v -0.649572 h -1.10536 v -0.356568 l 1.11776,-1.302246 h 0.28526 v 1.410767 h 0.34261 z m -0.64027,-0.248047 v -1.041797 l -0.89452,1.041797 z"
         style="font-size:3.17499995px;fill:#92999e;fill-opacity:0.94117647;stroke-width:0.26458332"
         id="path7567" />
    </g>
    <text
       xml:space="preserve"
       style="font-style:normal;font-weight:normal;font-size:4.23333311px;line-height:1.25;font-family:sans-serif;letter-spacing:0px;word-spacing:0px;fill:#000000;fill-opacity:1;stroke:none;stroke-width:0.26458332"
       x="53.58754"
       y="74.899017"
       id="text6836"><tspan
         sodipodi:role="line"
         id="tspan6834"
         x="53.58754"
         y="78.761215"
         style="stroke-width:0.26458332" /></text>
    <text
       xml:space="preserve"
       style="font-style:normal;font-weight:normal;font-size:4.23333311px;line-height:1.25;font-family:sans-serif;letter-spacing:0px;word-spacing:0px;fill:#000000;fill-opacity:1;stroke:none;stroke-width:0.26458332"
       x="160.09444"
       y="57.660137"
       id="text7535"><tspan
         sodipodi:role="line"
         id="tspan7533"
         x="160.09444"
         y="61.522335"
         style="stroke-width:0.26458332" /></text>
    <g
       aria-label="8"
       style="font-style:normal;font-weight:normal;font-size:4.23333311px;line-height:1.25;font-family:sans-serif;letter-spacing:0px;word-spacing:0px;fill:#757e85;fill-opacity:0.83529412;stroke:none;stroke-width:0.26458332;stroke-opacity:0.83529412"
       id="text7541">
      <path
         d="m 168.12565,79.112337 q 0,0.332452 -0.2601,0.552938 -0.25838,0.220486 -0.65112,0.220486 -0.41686,0 -0.66491,-0.215319 -0.24632,-0.215318 -0.24632,-0.551215 0,-0.213596 0.12402,-0.385851 0.12403,-0.173977 0.34968,-0.275607 v -0.01033 q -0.20671,-0.110244 -0.30661,-0.241157 -0.0982,-0.130914 -0.0982,-0.327284 0,-0.289388 0.23771,-0.482314 0.23771,-0.192925 0.60462,-0.192925 0.38412,0 0.61322,0.184313 0.2291,0.184312 0.2291,0.468533 0,0.173977 -0.10852,0.342787 -0.10852,0.167087 -0.31867,0.261827 v 0.01033 q 0.24116,0.103353 0.36863,0.254937 0.12746,0.151584 0.12746,0.385851 z m -0.40824,-1.252292 q 0,-0.184313 -0.14297,-0.292833 -0.14125,-0.110243 -0.36174,-0.110243 -0.21704,0 -0.35656,0.103352 -0.13781,0.103353 -0.13781,0.279053 0,0.124024 0.0689,0.215319 0.0706,0.08957 0.21188,0.160197 0.0637,0.03101 0.18259,0.08096 0.12058,0.04995 0.23426,0.08268 0.17054,-0.113689 0.23599,-0.235989 0.0655,-0.122301 0.0655,-0.282498 z m 0.0534,1.28502 q 0,-0.158474 -0.0706,-0.253214 -0.0689,-0.09646 -0.27217,-0.192926 -0.081,-0.0379 -0.17742,-0.07062 -0.0965,-0.03273 -0.25666,-0.09129 -0.15503,0.0844 -0.24977,0.229099 -0.093,0.144694 -0.093,0.327284 0,0.232544 0.1602,0.384128 0.1602,0.151584 0.40652,0.151584 0.25149,0 0.40136,-0.129191 0.15158,-0.129191 0.15158,-0.354845 z"
         style="font-size:3.52777767px;fill:#757e85;fill-opacity:0.83529412;stroke:none;stroke-width:0.26458332;stroke-opacity:0.83529412"
         id="path7562" />
    </g>
    <g
       aria-label="27"
       style="font-style:normal;font-weight:normal;font-size:3.17499995px;line-height:1.25;font-family:sans-serif;letter-spacing:0px;word-spacing:0px;fill:#757e85;fill-opacity:0.83529412;stroke:none;stroke-width:0.26458332"
       id="text7545">
      <path
         d="M 51.935385,75.895973 H 50.37269 v -0.324011 q 0.162781,-0.139526 0.325561,-0.279053 0.164331,-0.139526 0.305408,-0.277502 0.297656,-0.288355 0.407727,-0.457337 0.110071,-0.170532 0.110071,-0.367419 0,-0.179834 -0.119373,-0.280603 -0.117822,-0.102319 -0.330212,-0.102319 -0.141077,0 -0.305408,0.04961 -0.164331,0.04961 -0.32091,0.151929 h -0.0155 v -0.325562 q 0.11007,-0.05426 0.293005,-0.09922 0.184485,-0.04496 0.356567,-0.04496 0.355017,0 0.556556,0.172082 0.201538,0.170533 0.201538,0.463538 0,0.131775 -0.03411,0.246497 -0.03256,0.113171 -0.09767,0.21549 -0.06046,0.09612 -0.142627,0.189136 -0.08062,0.09302 -0.196887,0.206189 -0.165882,0.162781 -0.342615,0.31626 -0.176734,0.151929 -0.330213,0.282153 h 1.241785 z"
         style="fill:#757e85;fill-opacity:0.83529412;stroke-width:0.26458332"
         id="path7557" />
      <path
         d="m 53.963168,73.933302 -1.044897,1.962671 h -0.331763 l 1.11156,-2.037085 H 52.38342 v -0.271301 h 1.579748 z"
         style="fill:#757e85;fill-opacity:0.83529412;stroke-width:0.26458332"
         id="path7559" />
    </g>
  </g>
  <g
     inkscape:groupmode="layer"
     id="layer7"
     inkscape:label="guide"
     style="display:none">
    <path
       sodipodi:type="star"
       style="display:inline;opacity:1;fill:none;fill-opacity:1;stroke:#ff0000;stroke-width:0.5;stroke-miterlimit:4;stroke-dasharray:none;stroke-opacity:1"
       id="path6344"
       sodipodi:sides="34"
       sodipodi:cx="110.36905"
       sodipodi:cy="117.83928"
       sodipodi:r1="84.59935"
       sodipodi:r2="42.299679"
       sodipodi:arg1="0.77118111"
       sodipodi:arg2="0.8635809"
       inkscape:flatsided="false"
       inkscape:rounded="0"
       inkscape:randomized="0"
       d="m 171.03422,176.80356 -33.18224,-26.80916 21.31465,36.95238 -27.69109,-32.44991 14.16174,40.23975 -21.25693,-36.98561 6.52658,42.15681 -14.09891,-40.26181 -1.33085,42.63826 -6.46075,-42.16694 -9.142948,41.66772 1.397408,-42.63613 -16.643696,39.27824 9.20798,-41.6534 -23.57766,35.55118 16.70499,-39.25221 -29.70872,30.61347 23.633131,-35.51433 -34.828083,24.63326 29.756474,-30.56706 -38.761419,17.81419 34.866496,-24.57886 -41.37478,10.38847 38.789181,-17.75365 -42.579173,2.609 41.390947,-10.32388 -42.333584,-5.25933 42.583195,-2.54252 L 27.749783,99.642935 70.075106,104.96835 32.500103,84.771513 73.126214,97.783504 39.902156,71.026173 77.445583,91.281639 49.703874,58.874997 82.886122,85.684163 61.571472,48.731779 89.262558,81.18169 75.100814,40.941935 96.35775,77.927547 l -6.526578,-42.15681 14.098908,40.261814 1.33084,-42.638266 6.46076,42.166948 9.14295,-41.667727 -1.39741,42.636137 16.64369,-39.278244 -9.20798,41.653404 23.57766,-35.551187 -16.70499,39.252213 29.70872,-30.613475 -23.63313,35.514335 34.82809,-24.63326 -29.75648,30.56706 38.76142,-17.814189 -34.8665,24.57886 41.37479,-10.388476 -38.78919,17.753656 42.57918,-2.609 -41.39095,10.32388 42.33358,5.25933 -42.58319,2.54252 40.64637,12.94855 -42.32532,-5.32541 37.57501,20.19684 -40.62612,-13.012 33.22406,26.75734 -37.54343,-20.25547 z"
       transform="matrix(0.69278127,0,0,0.74163661,32.679018,0.86871704)" />
  </g>
  <g
     inkscape:groupmode="layer"
     id="layer6"
     inkscape:label="network edges"
     style="display:inline">
    <path
       style="fill:none;stroke:#87ceeb;stroke-width:0.26458332px;stroke-linecap:butt;stroke-linejoin:miter;stroke-opacity:0.39215686"
       d="M 116.41177,26.005382 81.352098,143.50393"
       id="path6559"
       inkscape:connector-curvature="0" />
    <path
       style="fill:none;stroke:#87ceeb;stroke-width:0.26458332px;stroke-linecap:butt;stroke-linejoin:miter;stroke-opacity:0.39215686"
       d="m 136.92915,33.021346 -20.51738,-7.015964 c 26.5349,113.509908 26.5349,113.509908 26.5349,113.509908"
       id="path6561"
       inkscape:connector-curvature="0" />
    <path
       style="fill:none;stroke:#87ceeb;stroke-width:0.26458332px;stroke-linecap:butt;stroke-linejoin:miter;stroke-opacity:0.39215686"
       d="m 157.95877,122.98095 c 0,0 0,0 -41.547,-96.975568 C 64.587707,129.02733 64.587707,129.02733 64.587707,129.02733"
       id="path6563"
       inkscape:connector-curvature="0" />
    <path
       style="fill:none;stroke:#87ceeb;stroke-width:0.26458332px;stroke-linecap:butt;stroke-linejoin:miter;stroke-opacity:0.39215686"
       d="m 101.86949,150.5199 c 0,0 0,0 14.54228,-124.514518 29.52612,13.422768 29.52612,13.422768 29.52612,13.422768"
       id="path6565"
       inkscape:connector-curvature="0" />
    <path
       style="fill:none;stroke:#87ceeb;stroke-width:0.26458332px;stroke-linecap:butt;stroke-linejoin:miter;stroke-opacity:0.39215686"
       d="m 151.16832,131.99271 c 0,0 0,0 -34.75655,-105.987328 50.65469,52.706511 50.65469,52.706511 50.65469,52.706511"
       id="path6567"
       inkscape:connector-curvature="0" />
    <path
       style="fill:none;stroke:#87ceeb;stroke-width:0.26458332px;stroke-linecap:butt;stroke-linejoin:miter;stroke-opacity:0.39215686"
       d="m 153.69355,47.497954 c 0,0 0,0 -37.28178,-21.492572 46.675,86.781528 46.675,86.781528 46.675,86.781528"
       id="path6569"
       inkscape:connector-curvature="0" />
    <path
       style="fill:none;stroke:#87ceeb;stroke-width:0.26458332px;stroke-linecap:butt;stroke-linejoin:miter;stroke-opacity:0.39215686"
       d="m 164.44082,67.480057 c 0,0 0,0 -48.02905,-41.474675 C 159.932,56.955951 159.932,56.955951 159.932,56.955951"
       id="path6571"
       inkscape:connector-curvature="0" />
    <path
       style="fill:none;stroke:#87ceeb;stroke-width:0.26458332px;stroke-linecap:butt;stroke-linejoin:miter;stroke-opacity:0.39215686"
       d="m 136.92915,33.021346 c 0,0 0,0 -9.95504,-4.525629 39.4036,73.262003 39.4036,73.262003 39.4036,73.262003"
       id="path6573"
       inkscape:connector-curvature="0" />
    <path
       style="fill:none;stroke:#87ceeb;stroke-width:0.26458332px;stroke-linecap:butt;stroke-linejoin:miter;stroke-opacity:0.39215686"
       d="m 167.06646,78.711892 c 0,0 0,0 -40.09235,-50.216175 18.96378,10.932433 18.96378,10.932433 18.96378,10.932433"
       id="path6575"
       inkscape:connector-curvature="0" />
    <path
       style="fill:none;stroke:#87ceeb;stroke-width:0.26458332px;stroke-linecap:butt;stroke-linejoin:miter;stroke-opacity:0.39215686"
       d="m 101.86949,150.5199 c 0,0 0,0 25.10462,-122.024183 C 64.587707,129.02733 64.587707,129.02733 64.587707,129.02733"
       id="path6577"
       inkscape:connector-curvature="0" />
    <path
       style="fill:none;stroke:#87ceeb;stroke-width:0.26458332px;stroke-linecap:butt;stroke-linejoin:miter;stroke-opacity:0.39215686"
       d="M 126.97411,28.495717 C 142.94667,139.51529 142.94667,139.51529 142.94667,139.51529"
       id="path6579"
       inkscape:connector-curvature="0" />
    <path
       style="fill:none;stroke:#87ceeb;stroke-width:0.26458332px;stroke-linecap:butt;stroke-linejoin:miter;stroke-opacity:0.39215686"
       d="m 142.94667,139.51529 c 0,0 0,0 -6.01752,-106.493944 C 55.19448,63.738375 55.19448,63.738375 55.19448,63.738375"
       id="path6581"
       inkscape:connector-curvature="0" />
    <path
       style="fill:none;stroke:#87ceeb;stroke-width:0.26458332px;stroke-linecap:butt;stroke-linejoin:miter;stroke-opacity:0.39215686"
       d="m 94.912369,27.397604 c 0,0 0,0 42.016781,5.623742 C 81.352098,143.50393 81.352098,143.50393 81.352098,143.50393"
       id="path6583"
       inkscape:connector-curvature="0" />
    <path
       style="fill:none;stroke:#87ceeb;stroke-width:0.26458332px;stroke-linecap:butt;stroke-linejoin:miter;stroke-opacity:0.39215686"
       d="m 166.37771,101.75772 c 0,0 0,0 -29.44856,-68.736374 30.79035,57.24762 30.79035,57.24762 30.79035,57.24762"
       id="path6585"
       inkscape:connector-curvature="0" />
    <path
       style="fill:none;stroke:#87ceeb;stroke-width:0.26458332px;stroke-linecap:butt;stroke-linejoin:miter;stroke-opacity:0.39215686"
       d="m 142.94667,139.51529 c 0,0 0,0 2.99122,-100.08714 5.23043,92.56456 5.23043,92.56456 5.23043,92.56456"
       id="path6587"
       inkscape:connector-curvature="0" />
    <path
       style="fill:none;stroke:#87ceeb;stroke-width:0.26458332px;stroke-linecap:butt;stroke-linejoin:miter;stroke-opacity:0.39215686"
       d="m 145.93789,39.42815 c 21.12857,39.283742 21.12857,39.283742 21.12857,39.283742"
       id="path6589"
       inkscape:connector-curvature="0" />
    <path
       style="fill:none;stroke:#87ceeb;stroke-width:0.26458332px;stroke-linecap:butt;stroke-linejoin:miter;stroke-opacity:0.39215686"
       d="m 153.69355,47.497954 c 10.74727,19.982103 10.74727,19.982103 10.74727,19.982103"
       id="path6591"
       inkscape:connector-curvature="0" />
    <path
       style="fill:none;stroke:#87ceeb;stroke-width:0.26458332px;stroke-linecap:butt;stroke-linejoin:miter;stroke-opacity:0.39215686"
       d="m 153.69355,47.497954 c 9.39322,65.288956 9.39322,65.288956 9.39322,65.288956"
       id="path6593"
       inkscape:connector-curvature="0" />
    <path
       style="fill:none;stroke:#87ceeb;stroke-width:0.26458332px;stroke-linecap:butt;stroke-linejoin:miter;stroke-opacity:0.39215686"
       d="m 163.08677,112.78691 c 0,0 0,0 -3.15477,-55.830961 4.50882,10.524108 4.50882,10.524108 4.50882,10.524108"
       id="path6595"
       inkscape:connector-curvature="0" />
    <path
       style="fill:none;stroke:#87ceeb;stroke-width:0.26458332px;stroke-linecap:butt;stroke-linejoin:miter;stroke-opacity:0.39215686"
       d="M 159.932,56.955949 C 112.67944,150.89014 112.67944,150.89014 112.67944,150.89014"
       id="path6597"
       inkscape:connector-curvature="0" />
    <path
       style="fill:none;stroke:#87ceeb;stroke-width:0.26458332px;stroke-linecap:butt;stroke-linejoin:miter;stroke-opacity:0.39215686"
       d="M 164.44082,67.480057 C 112.67944,150.89014 112.67944,150.89014 112.67944,150.89014"
       id="path6599"
       inkscape:connector-curvature="0" />
    <path
       style="fill:none;stroke:#87ceeb;stroke-width:0.26458332px;stroke-linecap:butt;stroke-linejoin:miter;stroke-opacity:0.39215686"
       d="m 75.334579,37.009988 c 0,0 0,0 92.384921,53.258976 C 105.60181,25.635142 105.60181,25.635142 105.60181,25.635142"
       id="path6601"
       inkscape:connector-curvature="0" />
    <path
       style="fill:none;stroke:#87ceeb;stroke-width:0.26458332px;stroke-linecap:butt;stroke-linejoin:miter;stroke-opacity:0.39215686"
       d="M 167.7195,90.268964 C 94.912367,27.397604 94.912367,27.397604 94.912367,27.397604"
       id="path6603"
       inkscape:connector-curvature="0" />
    <path
       style="fill:none;stroke:#87ceeb;stroke-width:0.26458332px;stroke-linecap:butt;stroke-linejoin:miter;stroke-opacity:0.39215686"
       d="m 75.334579,37.009988 c 0,0 0,0 91.043131,64.747732 -60.7759,-76.122578 -60.7759,-76.122578 -60.7759,-76.122578"
       id="path6605"
       inkscape:connector-curvature="0" />
    <path
       style="fill:none;stroke:#87ceeb;stroke-width:0.26458332px;stroke-linecap:butt;stroke-linejoin:miter;stroke-opacity:0.39215686"
       d="M 142.94667,139.51529 C 105.60181,25.635142 105.60181,25.635142 105.60181,25.635142"
       id="path6607"
       inkscape:connector-curvature="0" />
    <path
       style="fill:none;stroke:#87ceeb;stroke-width:0.26458332px;stroke-linecap:butt;stroke-linejoin:miter;stroke-opacity:0.39215686"
       d="M 133.5738,145.29253 C 105.60181,25.635142 105.60181,25.635142 105.60181,25.635142"
       id="path6609"
       inkscape:connector-curvature="0" />
    <path
       style="fill:none;stroke:#87ceeb;stroke-width:0.26458332px;stroke-linecap:butt;stroke-linejoin:miter;stroke-opacity:0.39215686"
       d="M 133.5738,145.29253 C 94.912367,27.397604 94.912367,27.397604 94.912367,27.397604"
       id="path6611"
       inkscape:connector-curvature="0" />
    <path
       style="fill:none;stroke:#87ceeb;stroke-width:0.26458332px;stroke-linecap:butt;stroke-linejoin:miter;stroke-opacity:0.39215686"
       d="m 105.60181,25.635141 c 0,0 0,0 17.76707,123.492539 C 94.912369,27.397604 94.912369,27.397604 94.912369,27.397604"
       id="path6613"
       inkscape:connector-curvature="0" />
    <path
       style="fill:none;stroke:#87ceeb;stroke-width:0.26458332px;stroke-linecap:butt;stroke-linejoin:miter;stroke-opacity:0.39215686"
       d="m 67.11293,44.532571 c 0,0 0,0 24.194214,103.496989 C 94.912367,27.397604 94.912367,27.397604 94.912367,27.397604"
       id="path6617"
       inkscape:connector-curvature="0" />
    <path
       style="fill:none;stroke:#87ceeb;stroke-width:0.26458332px;stroke-linecap:butt;stroke-linejoin:miter;stroke-opacity:0.39215686"
       d="M 81.352098,143.50393 C 105.60181,25.635142 105.60181,25.635142 105.60181,25.635142"
       id="path6619"
       inkscape:connector-curvature="0" />
    <path
       style="fill:none;stroke:#87ceeb;stroke-width:0.26458332px;stroke-linecap:butt;stroke-linejoin:miter;stroke-opacity:0.39215686"
       d="m 67.11293,44.532571 c 0,0 0,0 5.230428,92.564559 C 105.60181,25.635142 105.60181,25.635142 105.60181,25.635142"
       id="path6621"
       inkscape:connector-curvature="0" />
    <path
       style="fill:none;stroke:#87ceeb;stroke-width:0.26458332px;stroke-linecap:butt;stroke-linejoin:miter;stroke-opacity:0.39215686"
       d="m 94.912369,27.397604 c 0,0 0,0 -36.563119,92.171726 47.25256,-93.934188 47.25256,-93.934188 47.25256,-93.934188"
       id="path6623"
       inkscape:connector-curvature="0" />
    <path
       style="fill:none;stroke:#87ceeb;stroke-width:0.26458332px;stroke-linecap:butt;stroke-linejoin:miter;stroke-opacity:0.39215686"
       d="m 50.561755,86.256317 c 0,0 0,0 3.278677,22.788903 C 55.19448,63.738375 55.19448,63.738375 55.19448,63.738375"
       id="path6625"
       inkscape:connector-curvature="0" />
    <path
       style="fill:none;stroke:#87ceeb;stroke-width:0.26458332px;stroke-linecap:butt;stroke-linejoin:miter;stroke-opacity:0.39215686"
       d="M 53.840432,109.04522 C 67.11293,44.532571 67.11293,44.532571 67.11293,44.532571"
       id="path6627"
       inkscape:connector-curvature="0" />
    <path
       style="fill:none;stroke:#87ceeb;stroke-width:0.26458332px;stroke-linecap:butt;stroke-linejoin:miter;stroke-opacity:0.39215686"
       d="m 50.561755,86.256317 c 0,0 0,0 0.653042,11.557074 C 55.19448,63.738375 55.19448,63.738375 55.19448,63.738375"
       id="path6629"
       inkscape:connector-curvature="0" />
    <path
       style="fill:none;stroke:#87ceeb;stroke-width:0.26458332px;stroke-linecap:butt;stroke-linejoin:miter;stroke-opacity:0.39215686"
       d="M 51.214797,97.813391 C 84.707454,31.232755 84.707454,31.232755 84.707454,31.232755"
       id="path6631"
       inkscape:connector-curvature="0" />
    <path
       style="fill:none;stroke:#87ceeb;stroke-width:0.26458332px;stroke-linecap:butt;stroke-linejoin:miter;stroke-opacity:0.39215686"
       d="M 50.561755,86.256317 C 84.707454,31.232755 84.707454,31.232755 84.707454,31.232755"
       id="path6633"
       inkscape:connector-curvature="0" />
    <path
       style="fill:none;stroke:#87ceeb;stroke-width:0.26458332px;stroke-linecap:butt;stroke-linejoin:miter;stroke-opacity:0.39215686"
       d="m 67.11293,44.532571 c 0,0 0,0 -15.209383,30.234995 C 105.60181,25.635142 105.60181,25.635142 105.60181,25.635142"
       id="path6635"
       inkscape:connector-curvature="0" />
    <path
       style="fill:none;stroke:#87ceeb;stroke-width:0.26458332px;stroke-linecap:butt;stroke-linejoin:miter;stroke-opacity:0.39215686"
       d="M 55.19448,63.738376 C 105.60181,25.635141 105.60181,25.635141 105.60181,25.635141"
       id="path6637"
       inkscape:connector-curvature="0" />
    <path
       style="fill:none;stroke:#87ceeb;stroke-width:0.26458332px;stroke-linecap:butt;stroke-linejoin:miter;stroke-opacity:0.39215686"
       d="m 84.707454,31.232755 c 0,0 0,0 -24.384971,22.311571 C 105.60181,25.635142 105.60181,25.635142 105.60181,25.635142"
       id="path6639"
       inkscape:connector-curvature="0" />
    <path
       style="fill:none;stroke:#87ceeb;stroke-width:0.26458332px;stroke-linecap:butt;stroke-linejoin:miter;stroke-opacity:0.39215686"
       d="m 94.912367,27.397604 c 0,0 0,0 -27.799437,17.134967 38.48888,-18.89743 38.48888,-18.89743 38.48888,-18.89743"
       id="path6641"
       inkscape:connector-curvature="0" />
    <path
       style="fill:none;stroke:#87ceeb;stroke-width:0.26458332px;stroke-linecap:butt;stroke-linejoin:miter;stroke-opacity:0.39215686"
       d="m 75.334579,37.009988 c 19.57779,-9.612384 19.57779,-9.612384 19.57779,-9.612384"
       id="path6643"
       inkscape:connector-curvature="0" />
    <path
       style="fill:none;stroke:#87ceeb;stroke-width:0.26458332px;stroke-linecap:butt;stroke-linejoin:miter;stroke-opacity:0.39215686"
       d="M 75.334579,37.009988 C 105.60181,25.635141 105.60181,25.635141 105.60181,25.635141"
       id="path6645"
       inkscape:connector-curvature="0" />
    <path
       style="fill:none;stroke:#87ceeb;stroke-width:0.26458332px;stroke-linecap:butt;stroke-linejoin:miter;stroke-opacity:0.39215686"
       d="M 84.707454,31.232755 C 105.60181,25.635141 105.60181,25.635141 105.60181,25.635141"
       id="path6647"
       inkscape:connector-curvature="0" />
    <path
       style="fill:none;stroke:#87ceeb;stroke-width:0.26458332px;stroke-linecap:butt;stroke-linejoin:miter;stroke-opacity:0.39215686"
       d="M 94.912367,27.397604 C 105.60181,25.635141 105.60181,25.635141 105.60181,25.635141"
       id="path6649"
       inkscape:connector-curvature="0" />
  </g>
  <g
     inkscape:groupmode="layer"
     id="layer8"
     inkscape:label="initial edges"
     style="display:inline">
    <path
       style="fill:none;stroke:#0000c9;stroke-width:0.565;stroke-linecap:butt;stroke-linejoin:miter;stroke-miterlimit:4;stroke-dasharray:none;stroke-opacity:1"
       d="M 101.82969,150.40266 C 91.005273,147.8636 91.005273,147.8636 91.005273,147.8636 l -10.022607,-4.67722 -8.686261,-6.28083 -7.750815,-8.28535 -6.147199,-9.35444"
       id="path6800"
       inkscape:connector-curvature="0" />
    <path
       style="fill:none;stroke:#0000c9;stroke-width:0.565;stroke-linecap:butt;stroke-linejoin:miter;stroke-miterlimit:4;stroke-dasharray:none;stroke-opacity:1"
       d="M 59.92631,54.094414 C 159.9127,56.01778 159.9127,56.01778 159.9127,56.01778"
       id="path7531"
       inkscape:connector-curvature="0" />
    <path
       style="fill:none;stroke:#0000c9;stroke-width:0.565;stroke-linecap:butt;stroke-linejoin:miter;stroke-miterlimit:4;stroke-dasharray:none;stroke-opacity:1"
       d="M 129.62572,55.388345 112.92137,150.9372 101.96332,150.80357"
       id="path7537"
       inkscape:connector-curvature="0" />
    <path
       style="fill:none;stroke:#ff0000;stroke-width:0.565;stroke-linecap:butt;stroke-linejoin:miter;stroke-opacity:1;stroke-miterlimit:4;stroke-dasharray:none"
       d="M 58.799295,119.26576 95.014316,27.45868 109.1796,99.220548 127.22029,28.394125 158.22356,123.27481"
       id="path7555"
       inkscape:connector-curvature="0" />
  </g>
  <g
     inkscape:groupmode="layer"
     id="layer5"
     inkscape:label="zkc nodes"
     style="display:none">
    <circle
       style="display:inline;opacity:1;fill:#000000;fill-opacity:1;stroke:#000000;stroke-width:0.36500001;stroke-miterlimit:4;stroke-dasharray:none;stroke-opacity:1"
       id="path6840"
       cx="112.16443"
       cy="75.600449"
       r="3.3072915" />
  </g>
</svg>
